<svg width="20" height="21" viewBox="0 0 20 21" fill="none" xmlns="http://www.w3.org/2000/svg">
<path d="M15.34 4.23832C15.1027 4.23832 14.8707 4.3087 14.6733 4.44056C14.476 4.57241 14.3222 4.75983 14.2313 4.9791C14.1405 5.19837 14.1168 5.43965 14.1631 5.67243C14.2094 5.90521 14.3236 6.11903 14.4915 6.28685C14.6593 6.45467 14.8731 6.56896 15.1059 6.61526C15.3387 6.66156 15.5799 6.6378 15.7992 6.54698C16.0185 6.45615 16.2059 6.30234 16.3378 6.105C16.4696 5.90767 16.54 5.67566 16.54 5.43832C16.54 5.12006 16.4136 4.81484 16.1885 4.58979C15.9635 4.36475 15.6583 4.23832 15.34 4.23832ZM19.94 6.65832C19.9206 5.82862 19.7652 5.00772 19.48 4.22832C19.2257 3.56145 18.83 2.9576 18.32 2.45832C17.8248 1.94575 17.2196 1.5525 16.55 1.30832C15.7727 1.01448 14.9508 0.85553 14.12 0.83832C13.06 0.77832 12.72 0.77832 10 0.77832C7.28 0.77832 6.94 0.77832 5.88 0.83832C5.04915 0.85553 4.22734 1.01448 3.45 1.30832C2.78168 1.55497 2.17693 1.94788 1.68 2.45832C1.16743 2.9535 0.774176 3.55876 0.53 4.22832C0.236161 5.00566 0.07721 5.82747 0.0599999 6.65832C-5.58794e-08 7.71832 0 8.05832 0 10.7783C0 13.4983 -5.58794e-08 13.8383 0.0599999 14.8983C0.07721 15.7292 0.236161 16.551 0.53 17.3283C0.774176 17.9979 1.16743 18.6031 1.68 19.0983C2.17693 19.6088 2.78168 20.0017 3.45 20.2483C4.22734 20.5422 5.04915 20.7011 5.88 20.7183C6.94 20.7783 7.28 20.7783 10 20.7783C12.72 20.7783 13.06 20.7783 14.12 20.7183C14.9508 20.7011 15.7727 20.5422 16.55 20.2483C17.2196 20.0041 17.8248 19.6109 18.32 19.0983C18.8322 18.6009 19.2283 17.9965 19.48 17.3283C19.7652 16.5489 19.9206 15.728 19.94 14.8983C19.94 13.8383 20 13.4983 20 10.7783C20 8.05832 20 7.71832 19.94 6.65832ZM18.14 14.7783C18.1327 15.4131 18.0178 16.042 17.8 16.6383C17.6403 17.0735 17.3839 17.4667 17.05 17.7883C16.7256 18.1188 16.3332 18.3748 15.9 18.5383C15.3037 18.7561 14.6748 18.871 14.04 18.8783C13.04 18.9283 12.67 18.9383 10.04 18.9383C7.41 18.9383 7.04 18.9383 6.04 18.8783C5.38089 18.8907 4.72459 18.7892 4.1 18.5783C3.68578 18.4064 3.31136 18.1511 3 17.8283C2.66809 17.5071 2.41484 17.1135 2.26 16.6783C2.01586 16.0735 1.88044 15.4303 1.86 14.7783C1.86 13.7783 1.8 13.4083 1.8 10.7783C1.8 8.14832 1.8 7.77832 1.86 6.77832C1.86448 6.12938 1.98295 5.48627 2.21 4.87832C2.38605 4.45623 2.65627 4.07998 3 3.77832C3.30381 3.43449 3.67929 3.16142 4.1 2.97832C4.70955 2.75836 5.352 2.6434 6 2.63832C7 2.63832 7.37 2.57832 10 2.57832C12.63 2.57832 13 2.57832 14 2.63832C14.6348 2.6456 15.2637 2.76057 15.86 2.97832C16.3144 3.14697 16.7223 3.42117 17.05 3.77832C17.3777 4.0855 17.6338 4.46105 17.8 4.87832C18.0223 5.48725 18.1373 6.1301 18.14 6.77832C18.19 7.77832 18.2 8.14832 18.2 10.7783C18.2 13.4083 18.19 13.7783 18.14 14.7783ZM10 5.64832C8.98581 5.6503 7.99496 5.95285 7.15265 6.51774C6.31035 7.08263 5.65438 7.88452 5.26763 8.82207C4.88089 9.75963 4.78072 10.7908 4.97979 11.7852C5.17886 12.7797 5.66824 13.6929 6.38608 14.4093C7.10392 15.1257 8.01801 15.6133 9.01286 15.8105C10.0077 16.0076 11.0387 15.9054 11.9755 15.5169C12.9123 15.1283 13.7129 14.4708 14.2761 13.6274C14.8394 12.7839 15.14 11.7925 15.14 10.7783C15.1413 10.1034 15.0092 9.43493 14.7512 8.81128C14.4933 8.18763 14.1146 7.62113 13.6369 7.14437C13.1592 6.66761 12.5919 6.29 11.9678 6.03325C11.3436 5.7765 10.6749 5.64568 10 5.64832ZM10 14.1083C9.34139 14.1083 8.69757 13.913 8.14995 13.5471C7.60234 13.1812 7.17552 12.6611 6.92348 12.0527C6.67144 11.4442 6.6055 10.7746 6.73398 10.1287C6.86247 9.48271 7.17963 8.88936 7.64533 8.42365C8.11104 7.95795 8.70439 7.64079 9.35035 7.51231C9.99631 7.38382 10.6659 7.44976 11.2743 7.7018C11.8828 7.95384 12.4029 8.38066 12.7688 8.92827C13.1347 9.47589 13.33 10.1197 13.33 10.7783C13.33 11.2156 13.2439 11.6486 13.0765 12.0527C12.9092 12.4567 12.6639 12.8238 12.3547 13.133C12.0454 13.4422 11.6784 13.6875 11.2743 13.8548C10.8703 14.0222 10.4373 14.1083 10 14.1083Z" fill="white"/>
</svg>
