<svg width="24" height="17" viewBox="0 0 24 17" fill="none" xmlns="http://www.w3.org/2000/svg">
<path d="M3 14C3 14 4.82843 14 6 14M6 14C6 12.8954 6.89543 12 8 12C9.10457 12 10 12.8954 10 14M6 14C6 15.1046 6.89543 16 8 16C9.10457 16 10 15.1046 10 14M10 14C12.1479 14 13.3521 14 15.5 14M15.5 14C15.5 12.8954 16.3954 12 17.5 12C18.6046 12 19.5 12.8954 19.5 14M15.5 14C15.5 15.1046 16.3954 16 17.5 16C18.6046 16 19.5 15.1046 19.5 14M19.5 14C20.6716 14 22.5 14 22.5 14V9L21 7M21 7L19 2.5H15.5M21 7H15.5V2.5M15.5 2.5V1H3M2 4.5H8.5M1 7.5H7.5M2 10.5H6" stroke="#F86767" stroke-width="1.5" stroke-linecap="round" stroke-linejoin="round"/>
</svg>
