<svg width="21" height="23" viewBox="0 0 21 23" fill="none" xmlns="http://www.w3.org/2000/svg">
<path d="M1.03287 9.39474C1.03287 10.9737 0.506921 15.7105 3.66263 15.1842C5.96511 14.8002 6.0187 10.0052 4.18858 9.39474C2.35846 8.78427 1.03287 9.39474 1.03287 9.39474ZM1.03287 9.39474C1.03287 7.81579 2.61073 1.5 10.5 1.5C18.3893 1.5 19.9671 7.81579 19.9671 9.39474M19.9671 9.39474C19.9671 9.39474 18.6415 8.78427 16.8114 9.39474C14.9813 10.0052 15.0349 14.8002 17.3374 15.1842C19.1212 15.4817 19.7286 14.0975 19.9196 12.5526M19.9671 9.39474C19.9671 10.0812 20.0665 11.3644 19.9196 12.5526M19.9196 12.5526C19.7601 14.8333 17.5478 19.6053 12.0779 20.4474M12.0779 20.4474C12.0779 19.9211 11.6069 19.3947 11.026 19.3947C10.445 19.3947 9.97405 19.866 9.97405 20.4474C9.97405 21.0287 10.445 21.5 11.026 21.5C11.6069 21.5 12.0779 20.9737 12.0779 20.4474Z" stroke="#F86767" stroke-width="1.5"/>
</svg>
