<svg width="29" height="27" viewBox="0 0 29 27" fill="none" xmlns="http://www.w3.org/2000/svg">
<path d="M0.477819 25.6954C0.314613 25.9838 0.416095 26.3499 0.704488 26.5131C0.99288 26.6763 1.35897 26.5748 1.52218 26.2864L0.477819 25.6954ZM27.4778 26.2867C27.641 26.5751 28.0071 26.6766 28.2955 26.5134C28.5839 26.3502 28.6854 25.9841 28.5222 25.6957L27.4778 26.2867ZM22.7043 9.51394C22.7043 13.8713 19.0497 17.4367 14.5 17.4367V18.6367C19.6753 18.6367 23.9043 14.5705 23.9043 9.51394H22.7043ZM14.5 17.4367C9.95033 17.4367 6.29565 13.8713 6.29565 9.51394H5.09565C5.09565 14.5705 9.32466 18.6367 14.5 18.6367V17.4367ZM6.29565 9.51394C6.29565 5.15657 9.95033 1.59121 14.5 1.59121V0.391211C9.32466 0.391211 5.09565 4.45736 5.09565 9.51394H6.29565ZM14.5 1.59121C19.0497 1.59121 22.7043 5.15657 22.7043 9.51394H23.9043C23.9043 4.45736 19.6753 0.391211 14.5 0.391211V1.59121ZM1.52218 26.2864C2.8396 23.9585 4.73303 22.027 7.01104 20.6848L6.40187 19.6509C3.94049 21.1012 1.89781 23.1862 0.477819 25.6954L1.52218 26.2864ZM7.01104 20.6848C9.28895 19.3427 11.8717 18.6366 14.5 18.6367L14.5 17.4367C11.6562 17.4366 8.86335 18.2006 6.40187 19.6509L7.01104 20.6848ZM14.5 18.6367C17.1283 18.6367 19.7112 19.3428 21.9891 20.685L22.5983 19.6511C20.1368 18.2007 17.3438 17.4367 14.5 17.4367L14.5 18.6367ZM21.9891 20.685C24.267 22.0272 26.1604 23.9587 27.4778 26.2867L28.5222 25.6957C27.1022 23.1865 25.0596 21.1014 22.5983 19.6511L21.9891 20.685Z" fill="black"/>
</svg>
