<?xml version="1.0" standalone="no"?>
<!DOCTYPE svg PUBLIC "-//W3C//DTD SVG 20010904//EN"
 "http://www.w3.org/TR/2001/REC-SVG-20010904/DTD/svg10.dtd">
<svg version="1.0" xmlns="http://www.w3.org/2000/svg"
 width="744.000000pt" height="744.000000pt" viewBox="0 0 744.000000 744.000000"
 preserveAspectRatio="xMidYMid meet">
<metadata>
Created by potrace 1.14, written by Peter Selinger 2001-2017
</metadata>
<g transform="translate(0.000000,744.000000) scale(0.100000,-0.100000)"
fill="#000000" stroke="none">
<path d="M5004 7417 c-5 -7 -34 -47 -63 -90 -171 -254 -304 -579 -345 -847 -3
-19 -13 -73 -21 -120 -9 -47 -16 -92 -17 -100 0 -8 -4 -31 -8 -50 -5 -19 -12
-55 -15 -80 -3 -25 -8 -58 -11 -75 -24 -137 -37 -293 -38 -437 -1 -65 -3 -118
-6 -118 -11 0 8 -265 26 -355 13 -71 63 -221 101 -309 32 -72 137 -264 152
-276 3 -3 12 -16 20 -30 24 -42 144 -199 237 -310 109 -129 122 -145 154 -179
14 -15 54 -60 90 -100 36 -41 76 -86 90 -101 14 -15 44 -49 67 -76 23 -27 51
-60 63 -74 89 -104 130 -157 130 -168 0 -8 -41 -27 -80 -37 -3 -1 -14 -5 -25
-10 -11 -4 -74 -30 -140 -56 -118 -46 -427 -175 -489 -204 -36 -16 -69 -30
-221 -91 -60 -25 -119 -49 -130 -54 -33 -15 -264 -96 -355 -125 -167 -52 -186
-57 -310 -80 -14 -3 -36 -7 -50 -10 -71 -14 -92 -16 -175 -22 -152 -11 -473
-4 -555 11 -14 3 -54 7 -89 11 -73 6 -110 12 -194 26 -33 6 -73 12 -90 14 -50
5 -279 53 -417 87 -69 16 -132 32 -140 34 -47 11 -250 73 -260 79 -8 5 -10 19
-5 39 3 17 8 40 11 51 2 11 10 47 19 80 16 66 74 310 100 420 9 39 19 81 21
95 3 14 7 32 11 40 3 8 7 22 8 30 7 40 16 87 22 105 4 11 7 27 9 35 2 22 13
74 34 175 17 77 30 151 55 290 3 17 10 57 15 90 5 33 12 74 15 90 3 17 8 46
11 65 3 19 8 49 10 65 2 17 11 80 20 140 41 278 46 454 19 735 -6 63 -15 133
-21 170 -2 14 -9 54 -14 90 -13 82 -38 203 -51 255 -6 22 -12 47 -14 55 -2 8
-10 42 -19 75 -10 33 -19 67 -21 75 -2 8 -4 15 -5 15 -1 0 -3 7 -5 15 -3 14
-80 231 -109 308 -7 18 -18 38 -24 44 -7 7 -12 17 -12 24 0 9 -38 86 -58 119
-4 6 -7 12 -8 15 -2 16 -39 80 -46 80 -4 0 -8 5 -8 11 0 23 -250 399 -265 399
-4 0 9 -46 56 -198 17 -53 32 -104 34 -112 6 -25 42 -140 66 -215 12 -38 23
-74 25 -80 1 -5 9 -35 19 -65 69 -224 101 -344 110 -420 4 -30 9 -62 10 -70 5
-26 16 -152 20 -220 2 -36 7 -112 11 -170 3 -58 7 -130 9 -160 2 -30 6 -98 10
-150 12 -156 9 -250 -10 -410 -2 -19 -7 -62 -10 -95 -10 -111 -14 -150 -20
-187 -3 -21 -7 -54 -10 -73 -13 -93 -16 -112 -20 -135 -3 -14 -7 -41 -10 -60
-13 -82 -29 -174 -39 -216 -2 -12 -7 -37 -10 -55 -4 -29 -110 -550 -122 -601
-9 -38 -14 -66 -30 -143 -8 -44 -19 -93 -25 -110 -5 -16 -11 -43 -13 -60 -4
-28 -18 -100 -31 -155 -3 -14 -8 -36 -11 -50 -2 -14 -14 -68 -25 -120 -11 -52
-22 -106 -24 -120 -2 -14 -8 -45 -13 -70 -5 -25 -10 -52 -11 -60 0 -8 -9 -60
-20 -115 -10 -55 -22 -118 -25 -140 -4 -22 -13 -80 -22 -130 -8 -49 -17 -101
-19 -115 -2 -14 -18 -108 -35 -210 -17 -102 -33 -198 -36 -215 -2 -16 -9 -52
-14 -80 -5 -27 -11 -66 -14 -85 -3 -19 -10 -57 -15 -85 -6 -27 -13 -66 -16
-85 -2 -19 -7 -46 -10 -60 -2 -14 -7 -41 -9 -60 -3 -19 -8 -48 -11 -65 -3 -16
-7 -43 -10 -60 -3 -16 -7 -41 -10 -55 -3 -14 -7 -38 -9 -55 -4 -30 -42 -243
-50 -280 -2 -11 -7 -42 -10 -69 -4 -27 -9 -52 -10 -55 -2 -3 -7 -26 -10 -51
-3 -25 -8 -56 -11 -70 -3 -14 -10 -54 -15 -90 -6 -36 -13 -76 -16 -90 -2 -14
-7 -41 -10 -60 -3 -19 -7 -42 -9 -50 -3 -8 -7 -33 -10 -55 -4 -22 -10 -55 -15
-72 -12 -45 6 -51 20 -7 7 19 13 41 14 47 2 7 6 19 9 27 7 16 77 243 107 345
23 76 164 548 190 635 46 150 91 307 96 330 3 14 12 50 21 80 9 30 18 60 19
65 1 6 26 96 54 200 28 105 53 197 55 205 2 8 15 62 30 120 15 58 29 116 31
130 3 14 9 41 14 60 5 19 11 46 14 60 12 66 48 229 57 257 9 29 14 32 37 27
15 -4 34 -10 42 -14 51 -26 623 -211 693 -224 12 -2 58 -13 102 -24 44 -11
105 -25 135 -31 30 -6 66 -14 80 -16 14 -3 39 -7 55 -10 17 -3 41 -7 55 -10
14 -2 50 -7 80 -11 30 -3 66 -8 80 -11 52 -9 428 -11 489 -2 36 5 83 12 105
14 22 3 58 10 81 16 22 6 49 12 60 14 11 1 30 5 42 9 12 4 30 8 40 10 19 4 78
22 203 63 103 34 354 129 416 159 28 13 54 24 58 24 3 0 45 18 92 40 47 22 88
40 90 40 3 0 55 24 117 54 92 45 425 201 643 301 65 31 152 65 164 65 5 0 30
-39 57 -87 132 -244 182 -424 198 -718 4 -66 8 -145 10 -175 36 -550 31 -1682
-9 -2106 -6 -57 1 -70 10 -20 2 14 8 36 13 48 5 13 9 26 10 31 0 4 1 8 2 10 0
1 2 11 3 22 2 11 16 70 30 130 35 139 87 378 101 465 3 19 8 42 10 50 5 17 13
59 21 110 3 19 7 46 10 60 3 14 7 36 9 50 2 14 11 70 20 125 16 100 23 150 30
215 5 51 15 130 21 170 2 19 7 62 9 95 3 33 8 96 12 140 9 106 10 689 1 785
-21 224 -88 449 -200 675 -58 117 -154 281 -178 305 -3 3 -23 32 -45 64 -86
128 -238 307 -400 471 -84 86 -211 223 -266 289 -13 16 -28 34 -34 40 -123
137 -272 388 -331 556 -60 172 -72 276 -59 525 2 44 6 139 10 210 6 137 12
241 20 340 2 33 7 94 10 135 9 120 13 162 19 215 3 28 8 75 11 105 3 30 7 66
10 80 2 14 7 50 10 80 5 48 9 75 21 142 2 15 7 45 19 133 5 34 8 53 36 215 11
63 23 125 26 138 6 25 3 27 -13 9z"/>
<path d="M3294 4293 c-51 -79 -77 -157 -71 -214 5 -49 39 -137 69 -181 10 -14
18 -31 18 -37 0 -6 5 -11 10 -11 6 0 10 -7 10 -16 0 -25 17 -7 55 57 41 70 75
165 75 209 0 63 -90 250 -120 250 -6 0 -27 -25 -46 -57z"/>
<path d="M3601 1593 c1 -10 -6 -45 -14 -78 -9 -33 -25 -107 -37 -165 -12 -58
-24 -114 -26 -125 -3 -11 -7 -31 -9 -45 -2 -14 -6 -36 -9 -50 -7 -33 -25 -119
-31 -150 -3 -14 -7 -38 -10 -55 -2 -16 -6 -41 -9 -55 -3 -13 -8 -42 -11 -65
-4 -22 -13 -69 -21 -105 -8 -36 -17 -81 -20 -100 -3 -19 -8 -38 -11 -42 -2 -5
-6 -16 -8 -26 -11 -60 -89 -318 -125 -417 -10 -27 -21 -63 -24 -80 -6 -29 -5
-28 21 12 16 22 54 78 86 123 31 45 57 84 57 86 0 2 11 21 23 42 43 68 139
265 142 292 1 3 5 16 10 30 6 20 12 3 27 -85 11 -60 21 -114 22 -120 1 -5 8
-30 15 -55 7 -25 15 -52 16 -60 5 -23 54 -172 64 -195 5 -11 16 -38 25 -60 13
-31 16 -34 13 -12 -3 15 0 30 5 33 4 3 6 9 3 14 -3 5 -8 72 -10 147 -5 157
-13 305 -20 378 -3 28 -8 77 -10 110 -3 33 -7 76 -9 95 -3 19 -7 60 -10 90 -4
30 -8 69 -10 85 -2 17 -7 57 -11 90 -4 33 -9 71 -11 85 -2 14 -6 45 -9 70 -2
25 -7 55 -9 68 -3 13 -8 50 -11 83 -4 33 -8 70 -11 82 -5 28 -17 118 -17 135
0 6 -4 12 -8 12 -4 0 -8 -8 -8 -17z"/>
<path d="M1072 180 c0 -14 2 -19 5 -12 2 6 2 18 0 25 -3 6 -5 1 -5 -13z"/>
</g>
</svg>
