<?xml version="1.0" encoding="utf-8"?>
<!DOCTYPE xml>
<svg xmlns="http://www.w3.org/2000/svg" xmlns:xlink="http://www.w3.org/1999/xlink">
	<symbol viewBox="0 0 29 27" id="cart" fill="none" xmlns="http://www.w3.org/2000/svg">
		<path d="M21.2565 1.00854H25.934C27.0543 11.0861 30.1235 19.3314 25.625 23.3887C22.5233 26.1861 19.4374 26.0062 14.5 26.0062C9.56259 26.0062 6.47671 26.1861 3.37496 23.3887C-1.12352 19.3314 1.94571 11.0861 3.06596 1.00854H7.74351M21.2565 1.00854C21.2565 4.14961 20.9966 9.5156 14.5 9.5156C8.0034 9.5156 7.74351 4.14961 7.74351 1.00854M21.2565 1.00854H7.74351" stroke-width="1.2" />
	</symbol>
	<symbol viewBox="0 0 29 27" id="basket" stroke="none" xmlns="http://www.w3.org/2000/svg">
		<path d="M0.477819 25.7042C0.314613 25.9926 0.416095 26.3587 0.704488 26.5219C0.99288 26.6851 1.35897 26.5836 1.52218 26.2952L0.477819 25.7042ZM27.4778 26.2955C27.641 26.5839 28.0071 26.6854 28.2955 26.5222C28.5839 26.359 28.6854 25.9929 28.5222 25.7045L27.4778 26.2955ZM22.7043 9.52273C22.7043 13.8801 19.0497 17.4455 14.5 17.4455V18.6455C19.6753 18.6455 23.9043 14.5793 23.9043 9.52273H22.7043ZM14.5 17.4455C9.95033 17.4455 6.29565 13.8801 6.29565 9.52273H5.09565C5.09565 14.5793 9.32466 18.6455 14.5 18.6455V17.4455ZM6.29565 9.52273C6.29565 5.16536 9.95033 1.6 14.5 1.6V0.4C9.32466 0.4 5.09565 4.46615 5.09565 9.52273H6.29565ZM14.5 1.6C19.0497 1.6 22.7043 5.16536 22.7043 9.52273H23.9043C23.9043 4.46615 19.6753 0.4 14.5 0.4V1.6ZM1.52218 26.2952C2.8396 23.9673 4.73303 22.0358 7.01104 20.6936L6.40187 19.6597C3.94049 21.11 1.89781 23.195 0.477819 25.7042L1.52218 26.2952ZM7.01104 20.6936C9.28895 19.3515 11.8717 18.6454 14.5 18.6455L14.5 17.4455C11.6562 17.4454 8.86335 18.2094 6.40187 19.6597L7.01104 20.6936ZM14.5 18.6455C17.1283 18.6455 19.7112 19.3516 21.9891 20.6938L22.5983 19.6599C20.1368 18.2095 17.3438 17.4455 14.5 17.4455L14.5 18.6455ZM21.9891 20.6938C24.267 22.036 26.1604 23.9675 27.4778 26.2955L28.5222 25.7045C27.1022 23.1953 25.0596 21.1102 22.5983 19.6599L21.9891 20.6938Z" />
	</symbol>
	<symbol viewBox="0 0 19 40" id="arrow-down" xmlns="http://www.w3.org/2000/svg">
		<path d="M9.5 0V38M9.5 38L18 29.3867M9.5 38L1 29.3867" stroke-width="1.5" />
	</symbol>
	<symbol viewBox="0 0 10 19" id="arrow-swiper" fill="none" xmlns="http://www.w3.org/2000/svg">
		<path d="M0.523027 18.0385L9.19995 9.36153L0.523028 0.684606" />
	</symbol>
	<symbol viewBox="0 0 20 17" id="return" xmlns="http://www.w3.org/2000/svg">
		<path d="M1 16C1.42105 16 8.64912 16 13.2105 16C17.7719 16 19 13.3734 19 10.1333C19 6.89326 16.408 4.26667 13.2105 4.26667C8.47368 4.26667 1 4.26667 1 4.26667M1 4.26667L6.21053 1M1 4.26667L6.21053 7.53333" stroke="#F86767" stroke-width="1.5" stroke-linecap="round" stroke-linejoin="round" />
	</symbol>
	<symbol viewBox="0 0 24 17" id="shipping" xmlns="http://www.w3.org/2000/svg">
		<path d="M3 14C3 14 4.82843 14 6 14M6 14C6 12.8954 6.89543 12 8 12C9.10457 12 10 12.8954 10 14M6 14C6 15.1046 6.89543 16 8 16C9.10457 16 10 15.1046 10 14M10 14C12.1479 14 13.3521 14 15.5 14M15.5 14C15.5 12.8954 16.3954 12 17.5 12C18.6046 12 19.5 12.8954 19.5 14M15.5 14C15.5 15.1046 16.3954 16 17.5 16C18.6046 16 19.5 15.1046 19.5 14M19.5 14C20.6716 14 22.5 14 22.5 14V9L21 7M21 7L19 2.5H15.5M21 7H15.5V2.5M15.5 2.5V1H3M2 4.5H8.5M1 7.5H7.5M2 10.5H6" stroke="#F86767" stroke-width="1.5" stroke-linecap="round" stroke-linejoin="round" />
	</symbol>
	<symbol viewBox="0 0 24 23" id="star" fill="none" xmlns="http://www.w3.org/2000/svg">
		<path d="M12.4413 16.9936L11.9997 16.6722L11.5583 16.9939L6.01725 21.0319L8.13337 14.5115L8.30327 13.988L7.85484 13.6689L2.34756 9.75H9.1H9.64631L9.81386 9.23002L12 2.44544L14.1861 9.23002L14.3537 9.75H14.9H21.6524L16.1452 13.6689L15.6962 13.9884L15.8669 14.5123L17.9902 21.0319L12.4413 16.9936Z" stroke="#F86767" stroke-width="1.5" />
	</symbol>
	<symbol viewBox="0 0 21 23" id="support" xmlns="http://www.w3.org/2000/svg">
		<path d="M1.03287 9.39474C1.03287 10.9737 0.506921 15.7105 3.66263 15.1842C5.96511 14.8002 6.0187 10.0052 4.18858 9.39474C2.35846 8.78427 1.03287 9.39474 1.03287 9.39474ZM1.03287 9.39474C1.03287 7.81579 2.61073 1.5 10.5 1.5C18.3893 1.5 19.9671 7.81579 19.9671 9.39474M19.9671 9.39474C19.9671 9.39474 18.6415 8.78427 16.8114 9.39474C14.9813 10.0052 15.0349 14.8002 17.3374 15.1842C19.1212 15.4817 19.7286 14.0975 19.9196 12.5526M19.9671 9.39474C19.9671 10.0812 20.0665 11.3644 19.9196 12.5526M19.9196 12.5526C19.7601 14.8333 17.5478 19.6053 12.0779 20.4474M12.0779 20.4474C12.0779 19.9211 11.6069 19.3947 11.026 19.3947C10.445 19.3947 9.97405 19.866 9.97405 20.4474C9.97405 21.0287 10.445 21.5 11.026 21.5C11.6069 21.5 12.0779 20.9737 12.0779 20.4474Z" stroke="#F86767" stroke-width="1.5" />
	</symbol>
	<symbol viewBox="0 0 31 22" id="burger" xmlns="http://www.w3.org/2000/svg">
		<path d="M30.9668 1.2H0.466797V0H30.9668V1.2Z" />
		<path d="M30.9668 11.2H0.466797V10H30.9668V11.2Z" />
		<path d="M14.9668 21.2H30.9668V20H14.9668V21.2Z" />
	</symbol>
	<symbol viewBox="0 0 18 18" id="close" xmlns="http://www.w3.org/2000/svg">
		<path d="M1 17L9 9M17 1L9 9M9 9L1 1L17 17" stroke-width="1.2" />
	</symbol>
	<symbol viewBox="0 0 12 7" fill="none" id="toggle" xmlns="http://www.w3.org/2000/svg">
		<path d="M1 1L6 6L11 1" />
	</symbol>
	<symbol viewBox="0 0 22 27" fill="none" id="trash" xmlns="http://www.w3.org/2000/svg">
		<path d="M14.1425 22.788C14.1425 23.112 13.9265 23.328 13.6025 23.328C13.3325 23.328 13.0625 23.112 13.0625 22.788V9.936C13.0625 9.612 13.2785 9.396 13.6025 9.396C13.9265 9.396 14.1425 9.612 14.1425 9.936V22.788Z" />
		<path d="M8.90446 22.788C8.90446 23.112 8.68846 23.328 8.36446 23.328C8.04046 23.328 7.82446 23.112 7.82446 22.788V9.936C7.82446 9.612 8.04046 9.396 8.36446 9.396C8.68846 9.396 8.90446 9.612 8.90446 9.936V22.788Z" />
		<path fill-rule="evenodd" clip-rule="evenodd" d="M17.3821 27H4.63811C3.18011 27 1.99212 25.812 1.99212 24.408V6.858H0.858115C0.534115 6.858 0.318115 6.642 0.318115 6.318V5.076C0.318115 3.996 1.18212 3.078 2.31612 3.078H6.90612V1.674C6.90612 0.756 7.66212 0 8.58012 0H13.3861C14.3041 0 15.0601 0.756 15.0601 1.674V3.078H19.6501C20.7301 3.078 21.6481 3.942 21.6481 5.076V6.318C21.6481 6.642 21.4321 6.858 21.1081 6.858H19.9741V24.408C19.9741 25.812 18.8401 27 17.3821 27ZM17.3821 25.92C18.1921 25.92 18.8941 25.272 18.8941 24.408H18.9481V6.858H3.12612V24.408C3.12612 25.218 3.77411 25.92 4.63811 25.92H17.3821ZM8.58012 1.08C8.25612 1.08 7.98612 1.35 7.98612 1.674H8.04012V3.078H13.9801V1.674C13.9801 1.35 13.7101 1.08 13.3861 1.08H8.58012ZM2.31612 4.158C1.83012 4.158 1.39812 4.536 1.39812 5.076V5.778H20.5141V5.076C20.5141 4.59 20.1361 4.158 19.5961 4.158H2.31612Z" />
	</symbol>
	<symbol viewBox="0 0 21 21" id="help" stroke="none" xmlns="http://www.w3.org/2000/svg">
		<circle cx="10.5" cy="10.5" r="10.5" fill="#4F4F4F" />
		<path d="M10.8919 5.91C11.8819 5.91 12.6819 6.19 13.2919 6.75C13.9019 7.31 14.2069 8.06 14.2069 9C14.2069 10.05 13.8819 10.83 13.2319 11.34C12.5819 11.84 11.7019 12.09 10.5919 12.09L10.5469 13.515H9.36189L9.30189 11.145H9.73689C10.7269 11.145 11.5019 10.995 12.0619 10.695C12.6219 10.395 12.9019 9.83 12.9019 9C12.9019 8.4 12.7219 7.925 12.3619 7.575C12.0019 7.225 11.5169 7.05 10.9069 7.05C10.2869 7.05 9.79689 7.22 9.43689 7.56C9.08689 7.89 8.91189 8.345 8.91189 8.925H7.62189C7.62189 8.325 7.75689 7.8 8.02689 7.35C8.29689 6.89 8.67689 6.535 9.16689 6.285C9.66689 6.035 10.2419 5.91 10.8919 5.91ZM9.94689 16.59C9.68689 16.59 9.46689 16.5 9.28689 16.32C9.10689 16.14 9.01689 15.92 9.01689 15.66C9.01689 15.4 9.10689 15.18 9.28689 15C9.46689 14.82 9.68689 14.73 9.94689 14.73C10.1969 14.73 10.4069 14.82 10.5769 15C10.7569 15.18 10.8469 15.4 10.8469 15.66C10.8469 15.92 10.7569 16.14 10.5769 16.32C10.4069 16.5 10.1969 16.59 9.94689 16.59Z" fill="white" />
	</symbol>
	<symbol viewBox="0 0 22 21" id="check" xmlns="http://www.w3.org/2000/svg">
		<path d="M10 21C9.06383 17.8953 7.11489 13.0743 0 9.31417C3.41429 9.31417 7.40485 12.319 9.9466 14.2329L10 14.2731C10 14.2731 15.8723 1.37988 22 0C16.6383 3.75154 10 21 10 21Z" />
	</symbol>
	<symbol viewBox="0 0 140 147" id="play" xmlns="http://www.w3.org/2000/svg">
		<g filter="url(#filter0_d_59_476)">
			<path d="M50 94V47.564V47L90 70.5L50 94Z" fill="white" />
		</g>
		<defs>
			<filter id="filter0_d_59_476" x="0" y="0" width="140" height="147" filterUnits="userSpaceOnUse" color-interpolation-filters="sRGB">
				<feFlood flood-opacity="0" result="BackgroundImageFix" />
				<feColorMatrix in="SourceAlpha" type="matrix" values="0 0 0 0 0 0 0 0 0 0 0 0 0 0 0 0 0 0 127 0" result="hardAlpha" />
				<feOffset dy="3" />
				<feGaussianBlur stdDeviation="25" />
				<feComposite in2="hardAlpha" operator="out" />
				<feColorMatrix type="matrix" values="0 0 0 0 0.254167 0 0 0 0 0.176328 0 0 0 0 0.176328 0 0 0 0.7 0" />
				<feBlend mode="normal" in2="BackgroundImageFix" result="effect1_dropShadow_59_476" />
				<feBlend mode="normal" in="SourceGraphic" in2="effect1_dropShadow_59_476" result="shape" />
			</filter>
		</defs>
	</symbol>
	<symbol viewBox="0 0 20 21" id="location" xmlns="http://www.w3.org/2000/svg">
		<g clip-path="url(#clip0_80_656)">
			<path d="M9.9987 20.3996L9.65578 19.9033C9.39786 19.5296 3.33203 10.7079 3.33203 7.16667C3.33203 3.49083 6.32286 0.5 9.9987 0.5C13.6745 0.5 16.6654 3.49083 16.6654 7.16667C16.6654 10.7079 10.5995 19.5296 10.3416 19.9033L9.9987 20.3996ZM9.9987 2.33333C7.49902 2.33333 5.16536 3.95 5.16536 7.16667C5.16536 9.99458 8.99902 16 9.9987 17.9225C10.999 16 14.832 9.99458 14.832 7.16667C14.832 3.95 12.4984 2.33333 9.9987 2.33333Z" />
			<path d="M10.0009 10.5C8.39297 10.5 6.81641 9 6.81641 7.16667C6.81641 5.33333 8.39297 4 10.0009 4C11.6088 4 13.1706 5.401 13.1706 7.16667C13.1706 9.25 11.6088 10.5 10.0009 10.5ZM10.0006 5.08333C8.85181 5.08333 7.91723 6.01792 7.91723 7.16667C7.91723 8.31542 8.85181 9.25 10.0006 9.25C11.1493 9.25 12.0839 8.31542 12.0839 7.16667C12.0839 6.01792 11.1493 5.08333 10.0006 5.08333Z" />
		</g>
		<defs>
			<clipPath id="clip0_80_656">
				<rect width="20" height="20" fill="white" transform="translate(0 0.5)" />
			</clipPath>
		</defs>
	</symbol>
	<symbol viewBox="0 0 9 15" id="vector-left" fill="none" xmlns="http://www.w3.org/2000/svg">
		<path d="M8 1L1 7.5L8 14" stroke="#F86767" stroke-width="1.2" />
	</symbol>
	<symbol viewBox="0 0 25 15" id="show" fill="none" xmlns="http://www.w3.org/2000/svg">
		<path d="M12.5 2.5C9.83246 2.5 7.67 4.73858 7.67 7.5C7.67 10.2614 9.83246 12.5 12.5 12.5M12.5 2.5C15.1675 2.5 17.33 4.73858 17.33 7.5C17.33 10.2614 15.1675 12.5 12.5 12.5M12.5 2.5C17.33 2.50003 24 7.5 24 7.5C24 7.5 17.33 12.5 12.5 12.5M12.5 2.5C7.67 2.5 1 7.5 1 7.5C1 7.5 7.67 12.5 12.5 12.5M5.5 14.5L19.5 0.5" stroke="#4F4F4F" />
	</symbol>
	<symbol viewBox="0 0 25 12" id="showed" fill="none" xmlns="http://www.w3.org/2000/svg">
		<path d="M12.5 1C9.83246 1 7.67 3.23858 7.67 6C7.67 8.76142 9.83246 11 12.5 11M12.5 1C15.1675 1 17.33 3.23858 17.33 6C17.33 8.76142 15.1675 11 12.5 11M12.5 1C17.33 1.00003 24 6 24 6C24 6 17.33 11 12.5 11M12.5 1C7.67 1 1 6 1 6C1 6 7.67 11 12.5 11" stroke="#4F4F4F" />
	</symbol>

	<symbol width="17" height="17" id="tracking-copy" viewBox="0 0 17 17" fill="none" xmlns="http://www.w3.org/2000/svg">
		<rect x="3.71729" y="3.21729" width="12.7827" height="12.7827" rx="0.5" />
		<path d="M1 13.9102V1.5C1 0.947716 1.44772 0.5 2 0.5H14.4102"/>
	</symbol>

	<symbol width="12" height="17" viewBox="0 0 12 17" id="way-arrow" fill="none" xmlns="http://www.w3.org/2000/svg">
		<path d="M4 16.2109L12 8.21094L4 0.210938L-6.99382e-07 0.210938L7.5 8.21094L0 16.2109L4 16.2109Z" />
	</symbol>

	<symbol width="27" height="17" viewBox="0 0 27 17" id="mail" fill="none" xmlns="http://www.w3.org/2000/svg">
		<path d="M1 1V13C1 14.6569 2.34315 16 4 16H23C24.6569 16 26 14.6569 26 13V1M1 1H13.5H26M1 1L11.9565 7.57391C12.9066 8.14394 14.0934 8.14394 15.0435 7.57391L26 1" stroke-width="2"/>
	</symbol>

	<symbol width="22" height="24" viewBox="0 0 22 24" id="phone" fill="none" xmlns="http://www.w3.org/2000/svg">
		<path d="M5.52283 16.6593C1.6221 11.9316 0.0638592 5.83878 3.8476 2.7169C5.77387 1.12758 6.74733 2.02713 7.86182 3.3779C9.03877 4.80438 10.3694 6.41714 8.30557 8.11999C6.92967 9.25522 8.3358 11.6602 9.65054 13.2536C10.9653 14.8471 12.7154 16.9683 14.4353 15.5492C16.4991 13.8464 17.725 15.3321 18.7281 16.5479C20.1212 18.2364 21.3011 18.9657 18.8933 20.9523C15.4535 23.7904 9.42355 21.387 5.52283 16.6593Z" stroke-width="2"/>
	</symbol>

	<symbol width="11" height="20" viewBox="0 0 11 20" id="facebook" stroke="none" xmlns="http://www.w3.org/2000/svg">
		<path d="M8.51 3.32003H10.39V0.14003C9.47975 0.045377 8.56516 -0.00135428 7.65 2.98641e-05C4.93 2.98641e-05 3.07 1.66003 3.07 4.70003V7.32003H0V10.88H3.07V20H6.75V10.88H9.81L10.27 7.32003H6.75V5.05003C6.75 4.00003 7.03 3.32003 8.51 3.32003Z" />
	</symbol>

	<symbol width="20" height="21" viewBox="0 0 20 21" stroke="none" id="instagram" xmlns="http://www.w3.org/2000/svg">
		<path d="M15.34 4.23832C15.1027 4.23832 14.8707 4.3087 14.6733 4.44056C14.476 4.57241 14.3222 4.75983 14.2313 4.9791C14.1405 5.19837 14.1168 5.43965 14.1631 5.67243C14.2094 5.90521 14.3236 6.11903 14.4915 6.28685C14.6593 6.45467 14.8731 6.56896 15.1059 6.61526C15.3387 6.66156 15.5799 6.6378 15.7992 6.54698C16.0185 6.45615 16.2059 6.30234 16.3378 6.105C16.4696 5.90767 16.54 5.67566 16.54 5.43832C16.54 5.12006 16.4136 4.81484 16.1885 4.58979C15.9635 4.36475 15.6583 4.23832 15.34 4.23832ZM19.94 6.65832C19.9206 5.82862 19.7652 5.00772 19.48 4.22832C19.2257 3.56145 18.83 2.9576 18.32 2.45832C17.8248 1.94575 17.2196 1.5525 16.55 1.30832C15.7727 1.01448 14.9508 0.85553 14.12 0.83832C13.06 0.77832 12.72 0.77832 10 0.77832C7.28 0.77832 6.94 0.77832 5.88 0.83832C5.04915 0.85553 4.22734 1.01448 3.45 1.30832C2.78168 1.55497 2.17693 1.94788 1.68 2.45832C1.16743 2.9535 0.774176 3.55876 0.53 4.22832C0.236161 5.00566 0.07721 5.82747 0.0599999 6.65832C-5.58794e-08 7.71832 0 8.05832 0 10.7783C0 13.4983 -5.58794e-08 13.8383 0.0599999 14.8983C0.07721 15.7292 0.236161 16.551 0.53 17.3283C0.774176 17.9979 1.16743 18.6031 1.68 19.0983C2.17693 19.6088 2.78168 20.0017 3.45 20.2483C4.22734 20.5422 5.04915 20.7011 5.88 20.7183C6.94 20.7783 7.28 20.7783 10 20.7783C12.72 20.7783 13.06 20.7783 14.12 20.7183C14.9508 20.7011 15.7727 20.5422 16.55 20.2483C17.2196 20.0041 17.8248 19.6109 18.32 19.0983C18.8322 18.6009 19.2283 17.9965 19.48 17.3283C19.7652 16.5489 19.9206 15.728 19.94 14.8983C19.94 13.8383 20 13.4983 20 10.7783C20 8.05832 20 7.71832 19.94 6.65832ZM18.14 14.7783C18.1327 15.4131 18.0178 16.042 17.8 16.6383C17.6403 17.0735 17.3839 17.4667 17.05 17.7883C16.7256 18.1188 16.3332 18.3748 15.9 18.5383C15.3037 18.7561 14.6748 18.871 14.04 18.8783C13.04 18.9283 12.67 18.9383 10.04 18.9383C7.41 18.9383 7.04 18.9383 6.04 18.8783C5.38089 18.8907 4.72459 18.7892 4.1 18.5783C3.68578 18.4064 3.31136 18.1511 3 17.8283C2.66809 17.5071 2.41484 17.1135 2.26 16.6783C2.01586 16.0735 1.88044 15.4303 1.86 14.7783C1.86 13.7783 1.8 13.4083 1.8 10.7783C1.8 8.14832 1.8 7.77832 1.86 6.77832C1.86448 6.12938 1.98295 5.48627 2.21 4.87832C2.38605 4.45623 2.65627 4.07998 3 3.77832C3.30381 3.43449 3.67929 3.16142 4.1 2.97832C4.70955 2.75836 5.352 2.6434 6 2.63832C7 2.63832 7.37 2.57832 10 2.57832C12.63 2.57832 13 2.57832 14 2.63832C14.6348 2.6456 15.2637 2.76057 15.86 2.97832C16.3144 3.14697 16.7223 3.42117 17.05 3.77832C17.3777 4.0855 17.6338 4.46105 17.8 4.87832C18.0223 5.48725 18.1373 6.1301 18.14 6.77832C18.19 7.77832 18.2 8.14832 18.2 10.7783C18.2 13.4083 18.19 13.7783 18.14 14.7783ZM10 5.64832C8.98581 5.6503 7.99496 5.95285 7.15265 6.51774C6.31035 7.08263 5.65438 7.88452 5.26763 8.82207C4.88089 9.75963 4.78072 10.7908 4.97979 11.7852C5.17886 12.7797 5.66824 13.6929 6.38608 14.4093C7.10392 15.1257 8.01801 15.6133 9.01286 15.8105C10.0077 16.0076 11.0387 15.9054 11.9755 15.5169C12.9123 15.1283 13.7129 14.4708 14.2761 13.6274C14.8394 12.7839 15.14 11.7925 15.14 10.7783C15.1413 10.1034 15.0092 9.43493 14.7512 8.81128C14.4933 8.18763 14.1146 7.62113 13.6369 7.14437C13.1592 6.66761 12.5919 6.29 11.9678 6.03325C11.3436 5.7765 10.6749 5.64568 10 5.64832ZM10 14.1083C9.34139 14.1083 8.69757 13.913 8.14995 13.5471C7.60234 13.1812 7.17552 12.6611 6.92348 12.0527C6.67144 11.4442 6.6055 10.7746 6.73398 10.1287C6.86247 9.48271 7.17963 8.88936 7.64533 8.42365C8.11104 7.95795 8.70439 7.64079 9.35035 7.51231C9.99631 7.38382 10.6659 7.44976 11.2743 7.7018C11.8828 7.95384 12.4029 8.38066 12.7688 8.92827C13.1347 9.47589 13.33 10.1197 13.33 10.7783C13.33 11.2156 13.2439 11.6486 13.0765 12.0527C12.9092 12.4567 12.6639 12.8238 12.3547 13.133C12.0454 13.4422 11.6784 13.6875 11.2743 13.8548C10.8703 14.0222 10.4373 14.1083 10 14.1083Z"/>
	</symbol>


</svg>