<svg width="22" height="27" viewBox="0 0 22 27" fill="none" xmlns="http://www.w3.org/2000/svg">
<path d="M14.1425 22.788C14.1425 23.112 13.9265 23.328 13.6025 23.328C13.3325 23.328 13.0625 23.112 13.0625 22.788V9.936C13.0625 9.612 13.2785 9.396 13.6025 9.396C13.9265 9.396 14.1425 9.612 14.1425 9.936V22.788Z" fill="#F86767"/>
<path d="M8.90446 22.788C8.90446 23.112 8.68846 23.328 8.36446 23.328C8.04046 23.328 7.82446 23.112 7.82446 22.788V9.936C7.82446 9.612 8.04046 9.396 8.36446 9.396C8.68846 9.396 8.90446 9.612 8.90446 9.936V22.788Z" fill="#F86767"/>
<path fill-rule="evenodd" clip-rule="evenodd" d="M17.3821 27H4.63811C3.18011 27 1.99212 25.812 1.99212 24.408V6.858H0.858115C0.534115 6.858 0.318115 6.642 0.318115 6.318V5.076C0.318115 3.996 1.18212 3.078 2.31612 3.078H6.90612V1.674C6.90612 0.756 7.66212 0 8.58012 0H13.3861C14.3041 0 15.0601 0.756 15.0601 1.674V3.078H19.6501C20.7301 3.078 21.6481 3.942 21.6481 5.076V6.318C21.6481 6.642 21.4321 6.858 21.1081 6.858H19.9741V24.408C19.9741 25.812 18.8401 27 17.3821 27ZM17.3821 25.92C18.1921 25.92 18.8941 25.272 18.8941 24.408H18.9481V6.858H3.12612V24.408C3.12612 25.218 3.77411 25.92 4.63811 25.92H17.3821ZM8.58012 1.08C8.25612 1.08 7.98612 1.35 7.98612 1.674H8.04012V3.078H13.9801V1.674C13.9801 1.35 13.7101 1.08 13.3861 1.08H8.58012ZM2.31612 4.158C1.83012 4.158 1.39812 4.536 1.39812 5.076V5.778H20.5141V5.076C20.5141 4.59 20.1361 4.158 19.5961 4.158H2.31612Z" fill="#F86767"/>
</svg>
