<svg width="122" height="69" viewBox="0 0 122 69" fill="none" xmlns="http://www.w3.org/2000/svg">
<g clip-path="url(#clip0_156_638)">
<path d="M49.976 11.0695V26.5668H48.8001V10.6267C48.8001 9.68212 48.5943 8.954 48.1828 8.44233C47.7907 7.93066 47.1145 7.67485 46.1543 7.67485H45.8604V7.08447H47.7712C48.6726 7.08447 49.4369 7.23207 50.0642 7.52725C50.6915 7.82244 51.25 8.26522 51.7399 8.8556L62.029 21.6962V7.08447H63.2049V26.862H62.617L49.976 11.0695ZM69.3659 10.9219C68.915 10.9219 68.523 10.7349 68.19 10.3611C67.8762 9.98716 67.7197 9.54438 67.7197 9.03271C67.7197 8.61945 67.8373 8.29474 68.0724 8.05859C68.3271 7.82244 68.6604 7.70437 69.072 7.70437C69.5225 7.70437 69.9046 7.89133 70.2185 8.26522C70.5514 8.63911 70.7182 9.08189 70.7182 9.59356C70.7182 10.0068 70.5907 10.3315 70.3361 10.5677C70.1009 10.8038 69.7775 10.9219 69.3659 10.9219ZM68.2488 16.2353C68.2488 15.2316 68.1114 14.4937 67.8373 14.0214C67.5628 13.5294 67.0141 13.2834 66.191 13.2834H65.603V12.693H68.2488C68.9738 12.693 69.5129 12.7914 69.8657 12.9882C70.2379 13.1653 70.5025 13.4999 70.6594 13.9919C70.816 14.4838 70.8946 15.2316 70.8946 16.2353V26.5668H68.2488V16.2353ZM80.716 26.862C79.3049 26.862 78.1095 26.5472 77.1295 25.9174C76.1693 25.268 75.4439 24.4021 74.954 23.3198C74.4837 22.2177 74.2485 20.9878 74.2485 19.6299C74.2485 18.2721 74.4837 17.0519 74.954 15.9696C75.4439 14.8676 76.1693 14.0017 77.1295 13.372C78.1095 12.7225 79.3049 12.3978 80.716 12.3978C82.8719 12.3978 84.2926 12.7422 84.9786 13.431C85.3119 13.7656 85.5177 14.1788 85.596 14.6708C85.6742 15.1431 85.7136 16.009 85.7136 17.2684H85.1256C85.0473 16.0483 84.6652 15.1332 83.9791 14.5232C83.293 13.8934 82.4016 13.5786 81.3039 13.5786C79.8928 13.5786 78.8246 14.1394 78.0996 15.2612C77.394 16.3829 77.0413 17.8391 77.0413 19.6299C77.0413 21.4207 77.394 22.877 78.0996 23.9987C78.8246 25.1204 79.8928 25.6813 81.3039 25.6813C82.3034 25.6813 83.1266 25.4943 83.7733 25.1204C84.4201 24.7268 85.0179 24.1266 85.5666 23.3198L86.1545 23.7625C85.5078 24.8646 84.7434 25.6616 83.8615 26.1536C82.9796 26.6259 81.9312 26.862 80.716 26.862ZM94.6328 26.862C93.3 26.862 92.1733 26.5472 91.2521 25.9174C90.3308 25.268 89.6352 24.4021 89.1648 23.3198C88.6945 22.2177 88.4593 20.9878 88.4593 19.6299C88.4593 18.2917 88.6945 17.0717 89.1648 15.9696C89.6352 14.8676 90.3113 14.0017 91.1933 13.372C92.0947 12.7225 93.1434 12.3978 94.3388 12.3978C96.3184 12.3978 97.7883 12.9587 98.7485 14.0804C99.7285 15.1825 100.218 16.7863 100.218 18.892L100.16 20.0727H91.2521C91.2521 21.7258 91.6048 23.0738 92.3104 24.1168C93.0159 25.1598 93.986 25.6813 95.2207 25.6813C96.142 25.6813 96.9159 25.4845 97.5432 25.0909C98.1899 24.6973 98.7878 24.1069 99.3364 23.3198L99.9244 23.7625C99.2776 24.8449 98.5232 25.6321 97.6607 26.124C96.7983 26.616 95.7892 26.862 94.6328 26.862ZM97.4256 18.892C97.4256 17.1602 97.1709 15.8417 96.6612 14.9365C96.1515 14.0312 95.3777 13.5786 94.3388 13.5786C93.7509 13.5786 93.2217 13.8147 92.7513 14.287C92.281 14.7397 91.9087 15.3694 91.6342 16.1762C91.3796 16.9831 91.2521 17.8883 91.2521 18.892H97.4256Z" fill="white"/>
<path d="M60.4414 33.8728C60.4414 32.8691 60.3044 32.1311 60.0299 31.6588C59.7554 31.1669 59.2067 30.9209 58.3836 30.9209H57.7957V30.3305H65.439C67.5751 30.3305 69.4272 30.6847 70.9952 31.3932C72.5826 32.1016 73.3764 33.4693 73.3764 35.4963C73.3764 36.4212 73.0629 37.2574 72.4357 38.0054C71.8084 38.7533 70.8482 39.3437 69.5547 39.7765C71.3579 40.0717 72.612 40.613 73.3176 41.4C74.0426 42.1675 74.4053 43.2007 74.4053 44.4995C74.4053 46.4872 73.6215 47.8746 72.0535 48.6616C70.5053 49.4291 68.5945 49.8129 66.321 49.8129H60.4414V33.8728ZM65.88 39.3337C66.6836 39.3337 67.4381 39.1861 68.1436 38.8909C68.8686 38.5762 69.4566 38.1234 69.9075 37.5331C70.3583 36.9231 70.5836 36.1949 70.5836 35.3487C70.5836 34.4631 70.319 33.7252 69.7899 33.1348C69.2607 32.5247 68.5846 32.082 67.7614 31.8064C66.9578 31.5113 66.1346 31.3637 65.292 31.3637C64.606 31.3637 63.871 31.4621 63.0872 31.6588V39.3337H65.88ZM65.88 48.7797C67.6633 48.7797 69.0355 48.4255 69.9957 47.717C70.9757 47.0086 71.4655 45.9854 71.4655 44.6471C71.4655 43.3088 70.9852 42.2856 70.0251 41.5771C69.0843 40.8687 67.7026 40.5145 65.88 40.5145H63.0872V48.3664C64.0279 48.6421 64.9587 48.7797 65.88 48.7797ZM83.4032 50.108C82.0703 50.108 80.9139 49.7933 79.9342 49.1634C78.9542 48.514 78.2093 47.6384 77.7 46.5363C77.1903 45.4341 76.9357 44.2143 76.9357 42.876C76.9357 41.5377 77.1903 40.3178 77.7 39.2156C78.2093 38.1135 78.9542 37.2478 79.9342 36.618C80.9139 35.9686 82.0703 35.6439 83.4032 35.6439C84.7356 35.6439 85.892 35.9686 86.8721 36.618C87.8518 37.2478 88.5966 38.1135 89.1063 39.2156C89.6156 40.3178 89.8706 41.5377 89.8706 42.876C89.8706 44.2143 89.6156 45.4341 89.1063 46.5363C88.5966 47.6384 87.8518 48.514 86.8721 49.1634C85.892 49.7933 84.7356 50.108 83.4032 50.108ZM83.4032 48.9273C84.1282 48.9273 84.765 48.6616 85.314 48.1303C85.8821 47.599 86.3135 46.8709 86.6075 45.9459C86.9209 45.0209 87.0779 43.9977 87.0779 42.876C87.0779 41.7542 86.9209 40.7311 86.6075 39.806C86.3135 38.881 85.8821 38.153 85.314 37.6216C84.765 37.0903 84.1282 36.8246 83.4032 36.8246C82.6778 36.8246 82.031 37.0903 81.4629 37.6216C80.9139 38.153 80.4829 38.881 80.1694 39.806C79.8754 40.7311 79.7285 41.7542 79.7285 42.876C79.7285 43.9977 79.8754 45.0209 80.1694 45.9459C80.4829 46.8709 80.9139 47.599 81.4629 48.1303C82.031 48.6616 82.6778 48.9273 83.4032 48.9273ZM97.8749 50.108C96.1698 50.108 94.8565 49.4291 93.9356 48.0713C93.0338 46.7134 92.5833 44.9817 92.5833 42.876C92.5833 40.7702 93.0536 39.0385 93.9944 37.6807C94.9546 36.3228 96.3462 35.6439 98.1688 35.6439C98.9133 35.6439 99.57 35.7226 100.138 35.88C100.707 36.0375 101.275 36.2539 101.844 36.5294V33.8728C101.844 32.8691 101.706 32.1311 101.432 31.6588C101.157 31.1669 100.609 30.9209 99.7857 30.9209H99.1977V30.3305H101.844C102.569 30.3305 103.108 30.4289 103.46 30.6257C103.833 30.8028 104.097 31.1374 104.254 31.6293C104.411 32.1213 104.489 32.8691 104.489 33.8728V49.8129H103.019L101.991 48.4845H101.844C101.412 48.9764 100.903 49.3701 100.315 49.6653C99.7464 49.9605 98.9332 50.108 97.8749 50.108ZM98.7564 48.9273C99.5601 48.9273 100.168 48.7797 100.579 48.4845C100.991 48.1893 101.412 47.7465 101.844 47.1562V37.7102C101.256 37.4346 100.746 37.2183 100.315 37.0608C99.8834 36.9032 99.4623 36.8246 99.0508 36.8246C97.7962 36.8246 96.8654 37.3755 96.258 38.4777C95.67 39.5798 95.3761 41.0458 95.3761 42.876C95.3761 44.6866 95.6601 46.1525 96.2286 47.2742C96.7967 48.3764 97.6397 48.9273 98.7564 48.9273ZM109.705 54.831C110.665 54.831 111.449 54.6049 112.057 54.1521C112.684 53.7193 113.223 52.9123 113.673 51.7316L114.261 50.108L109.558 38.5957C109.009 37.1788 107.931 36.3917 106.324 36.2342V35.6439H108.823C110.528 35.6439 111.704 36.431 112.351 38.0054L115.702 46.1821L119.406 35.9391H120.876L115.143 51.7316C114.575 53.2861 113.948 54.3392 113.262 54.8901C112.576 55.441 111.684 55.7166 110.587 55.7166H109.705V54.831Z" fill="white"/>
<path d="M48.6897 44.4625C49.0814 49.9973 48.4545 57.377 45.7499 67.893C46.2497 61.9893 46.2721 52.8754 45.7499 45.2005C45.0344 34.6845 31.6033 29.8877 31.6033 19.0026C31.6033 14.6159 31.9391 13.6524 32.7048 9.04008C33.5169 4.14794 36.58 0.368958 36.58 0.368958C36.58 0.368958 35.6277 5.35024 35.2771 9.22457C34.8262 14.2059 34.874 15.4638 34.7259 18.0802C34.4647 22.6925 37.4818 26.5668 41.1565 30.2567C44.8312 33.9465 48.2979 38.9278 48.6897 44.4625Z" fill="url(#paint0_linear_156_638)"/>
<path d="M4.04227 45.2005C3.17231 50.6803 0.183838 67.8931 0.183838 67.8931C0.183838 67.8931 5.01978 52.6965 6.61456 45.2005C8.81266 34.869 9.73806 33.2086 11.208 22.877C11.8337 18.4785 10.896 12.73 9.35934 8.48664C7.82266 4.24332 4.94408 0.737976 4.94408 0.737976C4.94408 0.737976 6.61463 6.27274 7.34957 8.67113C8.08451 11.0695 8.1088 13.0654 8.25693 15.6818C8.51809 20.2941 8.65523 18.6337 8.08444 23.984C7.51365 29.3342 4.921 39.6658 4.04227 45.2005Z" fill="url(#paint1_linear_156_638)"/>
<path d="M23.9192 42.8741C17.6386 43.3556 9.42381 41.1764 6.05874 39.8521L5.69604 42.2487C9.41782 43.4984 17.1026 46.7938 23.9192 46.123C31.4188 45.385 42.0753 38.3743 45.5663 38.0053C46.7007 37.8854 46.1678 36.5387 45.0151 35.7914C39.5313 36.6926 30.6198 42.3605 23.9192 42.8741Z" fill="url(#paint2_linear_156_638)"/>
<path d="M20.0271 31.1792C20.0271 30.146 21.1295 28.7808 21.1295 28.7808C21.1295 28.7808 22.2319 30.146 22.2319 31.1792C22.2319 32.2123 21.1295 33.762 21.1295 33.762C21.1295 33.762 20.0271 32.2123 20.0271 31.1792Z" fill="url(#paint3_linear_156_638)"/>
<path d="M22.0482 61.8048C22.5994 58.484 23.598 54.0901 23.598 54.0901C23.598 54.0901 23.4063 58.0567 23.598 61.9893C23.2145 65.0478 20.0271 69 20.0271 69C20.0271 69 21.5054 65.0747 22.0482 61.8048Z" fill="url(#paint4_linear_156_638)"/>
<path d="M24.6111 61.8048C24.2824 58.6681 23.5981 53.8716 23.5981 53.8716C23.5981 53.8716 23.3345 58.2751 23.3345 61.9893C23.3345 65.14 24.9881 69 24.9881 69C24.9881 69 24.9786 65.3101 24.6111 61.8048Z" fill="url(#paint5_linear_156_638)"/>
<path d="M103.084 10.1381C101.483 8.53068 98.5819 8.11764 98.4819 8.11764C98.4819 8.11764 102.462 7.54837 104.063 9.15578C105.663 10.7632 105.096 14.7594 105.096 14.7594C105.096 14.6589 104.685 11.7455 103.084 10.1381Z" fill="url(#paint6_linear_156_638)"/>
<path d="M103.079 6.09183C104.678 4.48631 105.088 1.5763 105.088 1.47595C105.088 1.47595 105.855 5.66861 104.256 7.27413C102.657 8.87965 98.4819 8.10966 98.4819 8.10966C98.5819 8.10966 101.48 7.69735 103.079 6.09183Z" fill="url(#paint7_linear_156_638)"/>
<path d="M107.114 6.29256C108.713 7.89809 111.611 8.10974 111.711 8.10974C111.711 8.10974 107.535 8.87969 105.936 7.27417C104.338 5.66865 105.105 1.47601 105.105 1.47601C105.105 1.57636 105.515 4.68704 107.114 6.29256Z" fill="url(#paint8_linear_156_638)"/>
<path d="M107.109 10.1381C105.508 11.7455 105.096 14.6589 105.096 14.7593C105.096 14.7593 104.529 10.7632 106.131 9.15575C107.731 7.54835 111.711 8.11765 111.711 8.11765C111.611 8.11765 108.709 8.53066 107.109 10.1381Z" fill="url(#paint9_linear_156_638)"/>
</g>
<defs>
<linearGradient id="paint0_linear_156_638" x1="0.267944" y1="0.376201" x2="48.8807" y2="0.389814" gradientUnits="userSpaceOnUse">
<stop stop-color="#F4897A"/>
<stop offset="1" stop-color="#FFAE81"/>
</linearGradient>
<linearGradient id="paint1_linear_156_638" x1="0.268137" y1="0.376234" x2="48.8809" y2="0.389848" gradientUnits="userSpaceOnUse">
<stop stop-color="#F4897A"/>
<stop offset="1" stop-color="#FFAE81"/>
</linearGradient>
<linearGradient id="paint2_linear_156_638" x1="0.268038" y1="0.376222" x2="48.8809" y2="0.389836" gradientUnits="userSpaceOnUse">
<stop stop-color="#F4897A"/>
<stop offset="1" stop-color="#FFAE81"/>
</linearGradient>
<linearGradient id="paint3_linear_156_638" x1="0.267952" y1="0.37624" x2="48.8808" y2="0.389854" gradientUnits="userSpaceOnUse">
<stop stop-color="#F4897A"/>
<stop offset="1" stop-color="#FFAE81"/>
</linearGradient>
<linearGradient id="paint4_linear_156_638" x1="0.26803" y1="0.376211" x2="48.8808" y2="0.389825" gradientUnits="userSpaceOnUse">
<stop stop-color="#F4897A"/>
<stop offset="1" stop-color="#FFAE81"/>
</linearGradient>
<linearGradient id="paint5_linear_156_638" x1="0.268136" y1="0.376209" x2="48.8809" y2="0.389823" gradientUnits="userSpaceOnUse">
<stop stop-color="#F4897A"/>
<stop offset="1" stop-color="#FFAE81"/>
</linearGradient>
<linearGradient id="paint6_linear_156_638" x1="98.3717" y1="1.47609" x2="111.713" y2="1.4813" gradientUnits="userSpaceOnUse">
<stop stop-color="#F4897A"/>
<stop offset="1" stop-color="#FFAE81"/>
</linearGradient>
<linearGradient id="paint7_linear_156_638" x1="98.3717" y1="1.47608" x2="111.713" y2="1.48129" gradientUnits="userSpaceOnUse">
<stop stop-color="white"/>
<stop offset="1" stop-color="#FFAE81"/>
</linearGradient>
<linearGradient id="paint8_linear_156_638" x1="98.3717" y1="1.47605" x2="111.713" y2="1.48126" gradientUnits="userSpaceOnUse">
<stop stop-color="#F4897A"/>
<stop offset="1" stop-color="#FFAE81"/>
</linearGradient>
<linearGradient id="paint9_linear_156_638" x1="98.3718" y1="1.47603" x2="111.714" y2="1.48124" gradientUnits="userSpaceOnUse">
<stop stop-color="#F4897A"/>
<stop offset="1" stop-color="#FFAE81"/>
</linearGradient>
<clipPath id="clip0_156_638">
<rect width="122" height="69" fill="white"/>
</clipPath>
</defs>
</svg>
