<svg width="90" height="51" viewBox="0 0 90 51" fill="none" xmlns="http://www.w3.org/2000/svg">
<g clip-path="url(#clip0_156_391)">
<path d="M36.8674 8.18178V19.6363H36V7.85451C36 7.15633 35.8482 6.61816 35.5445 6.23996C35.2553 5.86177 34.7565 5.67269 34.0482 5.67269H33.8313V5.23633H35.2409C35.9059 5.23633 36.4698 5.34542 36.9325 5.5636C37.3952 5.78178 37.8073 6.10906 38.1686 6.54542L45.759 16.0363V5.23633H46.6265V19.8545H46.1927L36.8674 8.18178ZM51.1715 8.07269C50.8389 8.07269 50.5496 7.9345 50.304 7.65815C50.0725 7.38179 49.957 7.05452 49.957 6.67633C49.957 6.37087 50.0438 6.13087 50.2173 5.95633C50.4051 5.78178 50.651 5.69451 50.9546 5.69451C51.287 5.69451 51.5689 5.8327 51.8004 6.10906C52.046 6.38541 52.1691 6.71268 52.1691 7.09087C52.1691 7.39633 52.075 7.63633 51.8871 7.81087C51.7136 7.98542 51.4751 8.07269 51.1715 8.07269ZM50.3474 12C50.3474 11.2581 50.246 10.7127 50.0438 10.3636C49.8413 9.99997 49.4365 9.81815 48.8293 9.81815H48.3956V9.38178H50.3474C50.8822 9.38178 51.2799 9.45452 51.5402 9.59996C51.8148 9.73087 52.0099 9.97815 52.1257 10.3418C52.2412 10.7054 52.2992 11.2581 52.2992 12V19.6363H50.3474V12ZM59.5445 19.8545C58.5035 19.8545 57.6217 19.6218 56.8987 19.1563C56.1903 18.6763 55.6552 18.0363 55.2939 17.2363C54.9469 16.4218 54.7734 15.5127 54.7734 14.5091C54.7734 13.5054 54.9469 12.6036 55.2939 11.8036C55.6552 10.989 56.1903 10.3491 56.8987 9.8836C57.6217 9.4036 58.5035 9.1636 59.5445 9.1636C61.1349 9.1636 62.1829 9.41814 62.689 9.92724C62.9349 10.1745 63.0867 10.48 63.1445 10.8436C63.2022 11.1927 63.2312 11.8327 63.2312 12.7636H62.7975C62.7397 11.8618 62.4578 11.1854 61.9517 10.7345C61.4456 10.269 60.7879 10.0363 59.9782 10.0363C58.9372 10.0363 58.1492 10.4509 57.6143 11.28C57.0939 12.1091 56.8336 13.1854 56.8336 14.5091C56.8336 15.8327 57.0939 16.9091 57.6143 17.7381C58.1492 18.5672 58.9372 18.9818 59.9782 18.9818C60.7155 18.9818 61.3228 18.8436 61.7999 18.5672C62.277 18.2763 62.718 17.8327 63.1228 17.2363L63.5565 17.5636C63.0794 18.3782 62.5155 18.9672 61.8649 19.3309C61.2143 19.68 60.4409 19.8545 59.5445 19.8545ZM69.811 19.8545C68.8277 19.8545 67.9966 19.6218 67.317 19.1563C66.6374 18.6763 66.1242 18.0363 65.7772 17.2363C65.4302 16.4218 65.2568 15.5127 65.2568 14.5091C65.2568 13.52 65.4302 12.6182 65.7772 11.8036C66.1242 10.989 66.623 10.3491 67.2736 9.8836C67.9386 9.4036 68.7123 9.1636 69.5941 9.1636C71.0544 9.1636 72.1388 9.57815 72.8471 10.4072C73.5701 11.2218 73.9314 12.4072 73.9314 13.9636L73.8881 14.8363H67.317C67.317 16.0581 67.5772 17.0545 68.0977 17.8254C68.6182 18.5963 69.3339 18.9818 70.2447 18.9818C70.9243 18.9818 71.4952 18.8363 71.958 18.5454C72.4351 18.2545 72.8761 17.8181 73.2808 17.2363L73.7146 17.5636C73.2375 18.3636 72.6809 18.9454 72.0447 19.3091C71.4085 19.6727 70.6641 19.8545 69.811 19.8545ZM71.8712 13.9636C71.8712 12.6836 71.6833 11.709 71.3074 11.04C70.9314 10.3709 70.3605 10.0363 69.5941 10.0363C69.1604 10.0363 68.77 10.2109 68.423 10.56C68.076 10.8945 67.8014 11.36 67.5989 11.9563C67.4111 12.5527 67.317 13.2218 67.317 13.9636H71.8712Z" fill="#491919"/>
<path d="M44.588 25.0364C44.588 24.2946 44.4869 23.7491 44.2844 23.4C44.0819 23.0364 43.6772 22.8546 43.07 22.8546H42.6362V22.4182H48.2748C49.8506 22.4182 51.2169 22.68 52.3736 23.2037C53.5447 23.7273 54.1302 24.7382 54.1302 26.2364C54.1302 26.92 53.899 27.5381 53.4362 28.0909C52.9735 28.6438 52.2651 29.0801 51.3109 29.4C52.6411 29.6182 53.5664 30.0183 54.0868 30.6C54.6217 31.1673 54.8892 31.9309 54.8892 32.8909C54.8892 34.3601 54.311 35.3856 53.1543 35.9673C52.0122 36.5346 50.6026 36.8182 48.9254 36.8182H44.588V25.0364ZM48.6001 29.0728C49.1929 29.0728 49.7495 28.9637 50.27 28.7455C50.8048 28.5128 51.2386 28.1782 51.5712 27.7418C51.9038 27.291 52.07 26.7528 52.07 26.1273C52.07 25.4728 51.8748 24.9273 51.4844 24.4909C51.0941 24.04 50.5953 23.7128 49.988 23.5091C49.3952 23.2909 48.7879 23.1819 48.1663 23.1819C47.6602 23.1819 47.1181 23.2546 46.5398 23.4V29.0728H48.6001ZM48.6001 36.0546C49.9157 36.0546 50.9279 35.7928 51.6362 35.2691C52.3592 34.7455 52.7206 33.9892 52.7206 33C52.7206 32.0108 52.3663 31.2546 51.6579 30.7309C50.9639 30.2073 49.9447 29.9455 48.6001 29.9455H46.5398V35.7491C47.2338 35.9528 47.9205 36.0546 48.6001 36.0546ZM61.527 37.0364C60.5438 37.0364 59.6907 36.8038 58.968 36.3382C58.245 35.8582 57.6955 35.211 57.3198 34.3964C56.9438 33.5818 56.7559 32.6801 56.7559 31.6909C56.7559 30.7018 56.9438 29.8001 57.3198 28.9855C57.6955 28.1708 58.245 27.531 58.968 27.0655C59.6907 26.5855 60.5438 26.3455 61.527 26.3455C62.51 26.3455 63.3631 26.5855 64.0861 27.0655C64.8088 27.531 65.3582 28.1708 65.7342 28.9855C66.11 29.8001 66.2981 30.7018 66.2981 31.6909C66.2981 32.6801 66.11 33.5818 65.7342 34.3964C65.3582 35.211 64.8088 35.8582 64.0861 36.3382C63.3631 36.8038 62.51 37.0364 61.527 37.0364ZM61.527 36.1637C62.0619 36.1637 62.5317 35.9673 62.9367 35.5746C63.3557 35.1818 63.674 34.6438 63.8909 33.96C64.1221 33.2763 64.2379 32.52 64.2379 31.6909C64.2379 30.8618 64.1221 30.1056 63.8909 29.4218C63.674 28.7381 63.3557 28.2 62.9367 27.8073C62.5317 27.4146 62.0619 27.2182 61.527 27.2182C60.9919 27.2182 60.5148 27.4146 60.0957 27.8073C59.6907 28.2 59.3727 28.7381 59.1415 29.4218C58.9246 30.1056 58.8162 30.8618 58.8162 31.6909C58.8162 32.52 58.9246 33.2763 59.1415 33.96C59.3727 34.6438 59.6907 35.1818 60.0957 35.5746C60.5148 35.9673 60.9919 36.1637 61.527 36.1637ZM72.2029 37.0364C70.945 37.0364 69.9762 36.5346 69.2968 35.5309C68.6316 34.5273 68.2992 33.2474 68.2992 31.6909C68.2992 30.1345 68.6462 28.8546 69.3402 27.8509C70.0485 26.8473 71.0751 26.3455 72.4197 26.3455C72.9689 26.3455 73.4534 26.4037 73.8727 26.52C74.2918 26.6364 74.7112 26.7964 75.1306 27V25.0364C75.1306 24.2946 75.0292 23.7491 74.827 23.4C74.6245 23.0364 74.2197 22.8546 73.6125 22.8546H73.1788V22.4182H75.1306C75.6654 22.4182 76.0631 22.491 76.3233 22.6364C76.5979 22.7673 76.7931 23.0146 76.9089 23.3782C77.0244 23.7418 77.0824 24.2946 77.0824 25.0364V36.8182H75.998L75.239 35.8364H75.1306C74.8123 36.1999 74.4366 36.4909 74.0029 36.7091C73.5835 36.9273 72.9836 37.0364 72.2029 37.0364ZM72.8532 36.1637C73.446 36.1637 73.8944 36.0546 74.198 35.8364C74.5017 35.6182 74.8123 35.2909 75.1306 34.8546V27.8728C74.6968 27.669 74.3208 27.5092 74.0029 27.3928C73.6846 27.2763 73.3739 27.2182 73.0703 27.2182C72.1448 27.2182 71.4582 27.6254 71.0101 28.44C70.5763 29.2547 70.3595 30.3382 70.3595 31.6909C70.3595 33.0292 70.569 34.1128 70.9884 34.9418C71.4075 35.7565 72.0294 36.1637 72.8532 36.1637ZM80.9299 40.5273C81.6382 40.5273 82.2164 40.3601 82.6648 40.0255C83.1273 39.7056 83.525 39.1091 83.8576 38.2364L84.2913 37.0364L80.8214 28.5273C80.4164 27.48 79.6213 26.8982 78.4359 26.7818V26.3455H80.2793C81.5371 26.3455 82.4046 26.9273 82.8817 28.0909L85.354 34.1346L88.0865 26.5637H89.1708L84.9419 38.2364C84.5226 39.3854 84.0598 40.1638 83.554 40.5709C83.0479 40.9781 82.3899 41.1818 81.5805 41.1818H80.9299V40.5273Z" fill="#491919"/>
<path d="M35.9187 32.8636C36.2077 36.9545 35.7452 42.4091 33.75 50.1818C34.1187 45.8182 34.1352 39.0818 33.75 33.4091C33.2222 25.6363 23.314 22.0909 23.314 14.0454C23.314 10.8031 23.5617 10.0909 24.1266 6.6818C24.7257 3.06587 26.9853 0.272705 26.9853 0.272705C26.9853 0.272705 26.2828 3.95452 26.0242 6.81816C25.6916 10.5 25.7268 11.4298 25.6175 13.3636C25.4249 16.7727 27.6506 19.6363 30.3615 22.3636C33.0723 25.0909 35.6297 28.7727 35.9187 32.8636Z" fill="url(#paint0_linear_156_391)"/>
<path d="M2.98188 33.409C2.34011 37.4593 0.135498 50.1818 0.135498 50.1818C0.135498 50.1818 3.703 38.9495 4.87947 33.409C6.50102 25.7727 7.18369 24.5454 8.26806 16.909C8.72969 13.658 8.03793 9.40905 6.90431 6.27268C5.77069 3.13632 3.64715 0.54541 3.64715 0.54541C3.64715 0.54541 4.87953 4.63632 5.4217 6.40905C5.96387 8.18177 5.98178 9.65701 6.09106 11.5909C6.28372 15 6.38489 13.7727 5.96381 17.7272C5.54274 21.6818 3.63013 29.3181 2.98188 33.409Z" fill="url(#paint1_linear_156_391)"/>
<path d="M17.6452 31.6896C13.012 32.0455 6.95189 30.4348 4.46946 29.456L4.2019 31.2273C6.94747 32.151 12.6166 34.5868 17.6452 34.091C23.1777 33.5455 31.0391 28.3637 33.6144 28.091C34.4512 28.0023 34.0581 27.0069 33.2077 26.4546C29.1623 27.1207 22.5883 31.31 17.6452 31.6896Z" fill="url(#paint2_linear_156_391)"/>
<path d="M14.7742 23.0454C14.7742 22.2818 15.5874 21.2727 15.5874 21.2727C15.5874 21.2727 16.4007 22.2818 16.4007 23.0454C16.4007 23.8091 15.5874 24.9545 15.5874 24.9545C15.5874 24.9545 14.7742 23.8091 14.7742 23.0454Z" fill="url(#paint3_linear_156_391)"/>
<path d="M16.2651 45.6819C16.6718 43.2274 17.4085 39.9797 17.4085 39.9797C17.4085 39.9797 17.267 42.9116 17.4085 45.8183C17.1256 48.0789 14.7742 51.0001 14.7742 51.0001C14.7742 51.0001 15.8647 48.0988 16.2651 45.6819Z" fill="url(#paint4_linear_156_391)"/>
<path d="M18.1557 45.6818C17.9131 43.3633 17.4084 39.8181 17.4084 39.8181C17.4084 39.8181 17.2139 43.0728 17.2139 45.8181C17.2139 48.1469 18.4338 50.9999 18.4338 50.9999C18.4338 50.9999 18.4268 48.2727 18.1557 45.6818Z" fill="url(#paint5_linear_156_391)"/>
<path d="M76.0457 7.49344C74.8648 6.30536 72.7244 6.00007 72.6506 6.00007C72.6506 6.00007 75.5865 5.57931 76.7676 6.76739C77.9484 7.95547 77.5302 10.9092 77.5302 10.9092C77.5302 10.8349 77.2268 8.68152 76.0457 7.49344Z" fill="url(#paint6_linear_156_391)"/>
<path d="M76.0419 4.50256C77.2214 3.31587 77.5242 1.16499 77.5242 1.09082C77.5242 1.09082 78.0899 4.18974 76.9105 5.37643C75.731 6.56312 72.6506 5.99399 72.6506 5.99399C72.7244 5.99399 74.8621 5.68925 76.0419 4.50256Z" fill="url(#paint7_linear_156_391)"/>
<path d="M79.0183 4.65112C80.1981 5.83781 82.3358 5.99425 82.4096 5.99425C82.4096 5.99425 79.3292 6.56335 78.1498 5.37666C76.9703 4.18997 77.536 1.09106 77.536 1.09106C77.536 1.16523 77.8388 3.46443 79.0183 4.65112Z" fill="url(#paint8_linear_156_391)"/>
<path d="M79.0146 7.49343C77.8335 8.68151 77.5302 10.8349 77.5302 10.9091C77.5302 10.9091 77.1119 7.95545 78.293 6.76737C79.4738 5.57929 82.4097 6.00008 82.4097 6.00008C82.3359 6.00008 80.1955 6.30534 79.0146 7.49343Z" fill="url(#paint9_linear_156_391)"/>
</g>
<defs>
<linearGradient id="paint0_linear_156_391" x1="0.197739" y1="0.278059" x2="36.0596" y2="0.288082" gradientUnits="userSpaceOnUse">
<stop stop-color="#F4897A"/>
<stop offset="1" stop-color="#FFAE81"/>
</linearGradient>
<linearGradient id="paint1_linear_156_391" x1="0.197686" y1="0.278036" x2="36.0596" y2="0.288059" gradientUnits="userSpaceOnUse">
<stop stop-color="#F4897A"/>
<stop offset="1" stop-color="#FFAE81"/>
</linearGradient>
<linearGradient id="paint2_linear_156_391" x1="0.197637" y1="0.278124" x2="36.0595" y2="0.288147" gradientUnits="userSpaceOnUse">
<stop stop-color="#F4897A"/>
<stop offset="1" stop-color="#FFAE81"/>
</linearGradient>
<linearGradient id="paint3_linear_156_391" x1="0.19775" y1="0.278059" x2="36.0597" y2="0.288082" gradientUnits="userSpaceOnUse">
<stop stop-color="#F4897A"/>
<stop offset="1" stop-color="#FFAE81"/>
</linearGradient>
<linearGradient id="paint4_linear_156_391" x1="0.197807" y1="0.278176" x2="36.0597" y2="0.288199" gradientUnits="userSpaceOnUse">
<stop stop-color="#F4897A"/>
<stop offset="1" stop-color="#FFAE81"/>
</linearGradient>
<linearGradient id="paint5_linear_156_391" x1="0.197717" y1="0.278013" x2="36.0596" y2="0.288036" gradientUnits="userSpaceOnUse">
<stop stop-color="#F4897A"/>
<stop offset="1" stop-color="#FFAE81"/>
</linearGradient>
<linearGradient id="paint6_linear_156_391" x1="72.5693" y1="1.0911" x2="82.4116" y2="1.09494" gradientUnits="userSpaceOnUse">
<stop stop-color="#F4897A"/>
<stop offset="1" stop-color="#FFAE81"/>
</linearGradient>
<linearGradient id="paint7_linear_156_391" x1="72.5693" y1="1.09091" x2="82.4116" y2="1.09475" gradientUnits="userSpaceOnUse">
<stop stop-color="#F4897A"/>
<stop offset="1" stop-color="#FFAE81"/>
</linearGradient>
<linearGradient id="paint8_linear_156_391" x1="72.5692" y1="1.09109" x2="82.4115" y2="1.09493" gradientUnits="userSpaceOnUse">
<stop stop-color="#F4897A"/>
<stop offset="1" stop-color="#FFAE81"/>
</linearGradient>
<linearGradient id="paint9_linear_156_391" x1="72.5693" y1="1.09105" x2="82.4116" y2="1.09489" gradientUnits="userSpaceOnUse">
<stop stop-color="#F4897A"/>
<stop offset="1" stop-color="#FFAE81"/>
</linearGradient>
<clipPath id="clip0_156_391">
<rect width="90" height="51" fill="white"/>
</clipPath>
</defs>
</svg>
