<svg width="152" height="16" viewBox="0 0 152 16" fill="none" xmlns="http://www.w3.org/2000/svg">
<path d="M25.1784 3.5955V2.09607H19.3057V12.3422H20.9925V8.09378H24.8036V6.53188H20.9925V3.5955H25.1784Z" fill="black"/>
<path d="M41.2967 7.84377V12.2796H42.8586V7.40644C42.8586 6.28187 42.2963 4.22015 39.8598 4.22015C37.9855 4.22015 37.2358 5.4072 37.2358 5.4072L37.1108 4.40758H35.7363V12.3421H37.3607V8.34358C37.3607 6.59425 38.2979 5.78206 39.4849 5.78206C40.9219 5.65711 41.2967 6.84415 41.2967 7.84377Z" fill="black"/>
<path d="M58.5401 11.5924L61.7888 4.34515H60.1645L57.7904 9.90554L55.2913 4.34515H53.542L56.9782 11.7173C56.9157 11.9048 56.4784 12.9669 56.1035 13.2793C55.7911 13.5916 55.4163 13.6541 54.9165 13.6541L55.1664 15.0286C55.5412 15.0286 55.8536 14.9661 56.2285 14.8412C56.5409 14.7162 56.8532 14.5288 57.1031 14.2789C57.8528 13.5292 58.4776 11.9048 58.4776 11.9048L58.5401 11.5924Z" fill="black"/>
<path d="M30.4251 4.22015H29.9878C28.9257 4.22015 27.9261 4.65749 27.2388 5.4072C26.4891 6.15692 26.1143 7.15653 26.1143 8.21863V8.53101C26.1143 9.59311 26.5516 10.5927 27.2388 11.3424C27.9885 12.0922 28.9882 12.467 29.9878 12.467H30.4251C31.4872 12.467 32.4868 12.0297 33.2365 11.3424C33.9863 10.5927 34.3611 9.59311 34.3611 8.53101V8.21863C34.3611 7.15653 33.9238 6.15692 33.2365 5.4072C32.4868 4.65749 31.4872 4.22015 30.4251 4.22015ZM32.7992 8.46853C32.7992 9.15577 32.5493 9.78054 32.0495 10.2179C31.5497 10.7177 30.9249 10.9676 30.3002 10.9676H30.2377C29.5505 10.9676 28.9257 10.7177 28.4884 10.2179C27.9885 9.71806 27.7386 9.0933 27.7386 8.46853V8.28111C27.7386 7.59387 27.9885 6.96911 28.4884 6.53177C28.9882 6.03196 29.6129 5.78206 30.2377 5.78206H30.3002C30.9874 5.78206 31.6122 6.03196 32.0495 6.53177C32.5493 7.03158 32.7992 7.65634 32.7992 8.28111V8.46853Z" fill="black"/>
<path d="M50.8559 1.53369V5.09483C50.1686 4.53255 49.294 4.22017 48.4193 4.22017H48.1694C47.1073 4.22017 46.1077 4.6575 45.358 5.40722C44.6083 6.15693 44.2334 7.15655 44.2334 8.21864V8.53103C44.2334 9.59312 44.6707 10.5927 45.358 11.3425C46.1077 12.0922 47.1073 12.467 48.1694 12.467H48.4193C49.4189 12.467 50.3561 12.0922 51.1058 11.4049L51.2307 12.2796H52.4803V1.53369H50.8559ZM50.9184 8.46855C50.9184 9.15579 50.6684 9.78055 50.1686 10.2179C49.6688 10.7177 49.0441 10.9676 48.4193 10.9676H48.3568C47.6696 10.9676 47.0448 10.7177 46.6075 10.2179C46.1077 9.71807 45.8578 9.09331 45.8578 8.46855V8.28112C45.8578 7.59388 46.1077 6.96912 46.6075 6.53179C47.1073 6.03198 47.7321 5.78207 48.3568 5.78207H48.4193C49.1065 5.78207 49.7313 6.03198 50.1686 6.53179C50.6684 7.0316 50.9184 7.65636 50.9184 8.28112V8.46855Z" fill="black"/>
<path d="M8.62155 12.2172V10.5303C8.62155 10.4678 8.62155 10.3429 8.55907 10.2804C8.49659 10.2179 8.43412 10.1554 8.37164 10.093L6.87221 9.2183C6.80974 9.15582 6.68478 9.15582 6.62231 9.15582C6.55983 9.15582 6.43488 9.15582 6.3724 9.2183L4.93545 10.0305C4.87298 10.093 4.8105 10.1554 4.74802 10.2179C4.68555 10.2804 4.68555 10.4053 4.68555 10.4678V12.1547C4.68555 12.2172 4.68555 12.3421 4.74802 12.4046C4.8105 12.4671 4.87298 12.5295 4.93545 12.592L6.3724 13.4042C6.43488 13.4667 6.55983 13.4667 6.62231 13.4667C6.68478 13.4667 6.80974 13.4667 6.87221 13.4042L8.30917 12.592C8.37164 12.5295 8.43412 12.4671 8.49659 12.4046C8.62155 12.4046 8.62155 12.2796 8.62155 12.2172Z" fill="#08A835"/>
<path d="M13.3696 12.2172V10.5303C13.3696 10.4678 13.3696 10.3429 13.3071 10.2804C13.2446 10.2179 13.1822 10.1554 13.1197 10.093L11.6203 9.2183C11.5578 9.15582 11.4328 9.15582 11.3704 9.15582C11.3079 9.15582 11.1829 9.15582 11.1205 9.2183L9.6835 10.0305C9.62102 10.093 9.55855 10.1554 9.49607 10.2179C9.43359 10.2804 9.43359 10.4053 9.43359 10.4678V12.1547C9.43359 12.2172 9.43359 12.3421 9.49607 12.4046C9.55855 12.4671 9.62102 12.5295 9.6835 12.592L11.1205 13.4042C11.1829 13.4667 11.3079 13.4667 11.3704 13.4667C11.4328 13.4667 11.5578 13.4667 11.6203 13.4042L13.0572 12.592C13.1197 12.5295 13.1822 12.4671 13.2446 12.4046C13.3071 12.4046 13.3696 12.2796 13.3696 12.2172Z" fill="#08A835"/>
<path d="M6.24752 8.09371V6.40685C6.24752 6.34437 6.24752 6.21942 6.18505 6.15694C6.12257 6.09447 6.06009 6.03199 5.99762 5.96952L4.56067 5.15733C4.49819 5.09485 4.37324 5.09485 4.31076 5.09485C4.24829 5.09485 4.12333 5.09485 4.06086 5.15733L2.6239 5.96952C2.56143 6.03199 2.49895 6.09447 2.43648 6.15694C2.31152 6.21942 2.31152 6.2819 2.31152 6.40685V8.09371C2.31152 8.15618 2.31152 8.28113 2.374 8.34361C2.43648 8.40609 2.49895 8.46856 2.56143 8.53104L3.99838 9.34323C4.06086 9.40571 4.18581 9.40571 4.24829 9.40571C4.31076 9.40571 4.43571 9.40571 4.49819 9.34323L5.93514 8.53104C5.99762 8.46856 6.0601 8.40609 6.12257 8.34361C6.24752 8.28113 6.24752 8.15618 6.24752 8.09371Z" fill="#08A835"/>
<path d="M10.9956 8.09371V6.40685C10.9956 6.34437 10.9956 6.21942 10.9331 6.15694C10.8706 6.09447 10.8081 6.03199 10.7457 5.96952L9.30871 5.15733C9.24624 5.09485 9.12128 5.09485 9.05881 5.09485C8.99633 5.09485 8.87138 5.09485 8.8089 5.15733L7.30947 5.90704C7.247 5.96952 7.18452 6.03199 7.12205 6.09447C7.05957 6.15694 7.05957 6.2819 7.05957 6.34437V8.03123C7.05957 8.09371 7.05957 8.21866 7.12205 8.28113C7.18452 8.34361 7.247 8.40609 7.30947 8.46856L8.74643 9.28075C8.8089 9.34323 8.93386 9.34323 8.99633 9.34323C9.05881 9.34323 9.18376 9.34323 9.24624 9.28075L10.6832 8.46856C10.7457 8.40609 10.8081 8.34361 10.8706 8.28113C10.9331 8.28113 10.9956 8.15618 10.9956 8.09371Z" fill="#08A835"/>
<path d="M3.87352 12.2172V10.5303C3.87352 10.4678 3.87352 10.3429 3.81105 10.2804C3.74857 10.2179 3.6861 10.1554 3.62362 10.093L2.18667 9.2183C2.12419 9.15582 1.99924 9.15582 1.93676 9.15582C1.87429 9.15582 1.74933 9.15582 1.68686 9.2183L0.249905 10.0305C0.187428 10.093 0.124952 10.1554 0.0624761 10.2179C-6.05129e-08 10.2804 0 10.4053 0 10.4678V12.1547C0 12.2172 -6.05129e-08 12.3421 0.0624761 12.4046C0.124952 12.4671 0.187428 12.5295 0.249905 12.592L1.68686 13.4042C1.74933 13.4667 1.87429 13.4667 1.93676 13.4667C1.99924 13.4667 2.12419 13.4667 2.18667 13.4042L3.62362 12.592C3.6861 12.5295 3.74857 12.4671 3.81105 12.4046C3.87352 12.4046 3.87352 12.2796 3.87352 12.2172Z" fill="#08A835"/>
<path d="M8.62157 3.97029V2.28344C8.62157 2.22096 8.62157 2.09601 8.55909 2.03353C8.49662 1.97105 8.43414 1.90858 8.37167 1.8461L6.93471 1.03391C6.87224 0.971435 6.74729 0.971436 6.68481 0.971436C6.62233 0.971436 6.49738 0.971435 6.4349 1.03391L4.99795 1.8461C4.93548 1.90858 4.873 1.97105 4.81052 2.03353C4.74805 2.09601 4.74805 2.22096 4.74805 2.28344V3.97029C4.74805 4.03277 4.74805 4.15772 4.81052 4.2202C4.873 4.28267 4.93548 4.34515 4.99795 4.40763L6.4349 5.21982C6.49738 5.28229 6.62233 5.28229 6.68481 5.28229C6.74729 5.28229 6.87224 5.28229 6.93471 5.21982L8.37167 4.40763C8.43414 4.34515 8.49662 4.28267 8.55909 4.2202C8.62157 4.15772 8.62157 4.03277 8.62157 3.97029Z" fill="black"/>
<g clip-path="url(#clip0_1641_1685)">
<path d="M93.6886 13.8269H90.5293L92.5053 2.21057H95.6644L93.6886 13.8269Z" fill="#00579F"/>
<path d="M105.142 2.49455C104.519 2.25951 103.53 2 102.308 2C99.1885 2 96.9915 3.58171 96.978 5.84309C96.9521 7.51153 98.551 8.43822 99.7469 8.99453C100.969 9.56299 101.385 9.93403 101.385 10.4407C101.372 11.2189 100.397 11.5777 99.4874 11.5777C98.226 11.5777 97.5502 11.3927 96.5231 10.9598L96.1071 10.7742L95.665 13.3818C96.406 13.7027 97.7712 13.9875 99.1885 14C102.503 14 104.662 12.4428 104.687 10.0329C104.7 8.71054 103.855 7.69729 102.035 6.86932C100.93 6.33781 100.254 5.97942 100.254 5.43559C100.267 4.9412 100.826 4.43482 102.073 4.43482C103.1 4.41002 103.855 4.64473 104.427 4.87961L104.712 5.00296L105.142 2.49455Z" fill="#00579F"/>
<path d="M109.341 9.71164C109.601 9.0443 110.602 6.46149 110.602 6.46149C110.589 6.48629 110.862 5.78183 111.018 5.34936L111.239 6.35029C111.239 6.35029 111.837 9.13086 111.967 9.71164C111.473 9.71164 109.965 9.71164 109.341 9.71164ZM113.241 2.21057H110.797C110.043 2.21057 109.471 2.42048 109.146 3.17438L104.453 13.8267H107.768C107.768 13.8267 108.314 12.393 108.431 12.0842C108.795 12.0842 112.02 12.0842 112.487 12.0842C112.578 12.492 112.864 13.8267 112.864 13.8267H115.79L113.241 2.21057Z" fill="#00579F"/>
<path d="M87.8908 2.21057L84.7968 10.1318L84.4587 8.52527C83.8867 6.67156 82.0928 4.65755 80.0908 3.65612L82.9248 13.8146H86.2656L91.2315 2.21057H87.8908Z" fill="#00579F"/>
<path d="M81.924 2.21057H76.8411L76.7891 2.44528C80.7541 3.40926 83.3801 5.73288 84.4589 8.52577L83.354 3.18703C83.172 2.44512 82.613 2.23504 81.924 2.21057Z" fill="#FAA61A"/>
</g>
<g clip-path="url(#clip1_1641_1685)">
<path d="M134.595 15.9649V14.9031C134.595 14.4969 134.343 14.2309 133.91 14.2309C133.694 14.2309 133.458 14.301 133.297 14.532C133.171 14.3381 132.99 14.2309 132.719 14.2309C132.538 14.2309 132.357 14.2845 132.214 14.4783V14.266H131.836V15.9649H132.214V15.0268C132.214 14.7258 132.376 14.5835 132.628 14.5835C132.88 14.5835 133.007 14.7423 133.007 15.0268V15.9649H133.385V15.0268C133.385 14.7258 133.566 14.5835 133.799 14.5835C134.051 14.5835 134.177 14.7423 134.177 15.0268V15.9649H134.595ZM140.207 14.266H139.593V13.7526H139.215V14.266H138.872V14.6021H139.215V15.3814C139.215 15.7711 139.377 16 139.81 16C139.972 16 140.152 15.9464 140.278 15.8763L140.169 15.5567C140.06 15.6268 139.934 15.6454 139.843 15.6454C139.663 15.6454 139.591 15.5381 139.591 15.3629V14.6021H140.205V14.266H140.207ZM143.418 14.2289C143.202 14.2289 143.057 14.3361 142.966 14.4763V14.2639H142.588V15.9629H142.966V15.0062C142.966 14.7237 143.093 14.5629 143.328 14.5629C143.399 14.5629 143.49 14.5814 143.563 14.5979L143.673 14.2433C143.597 14.2289 143.49 14.2289 143.418 14.2289ZM138.566 14.4062C138.385 14.2825 138.133 14.2289 137.861 14.2289C137.429 14.2289 137.141 14.4412 137.141 14.7773C137.141 15.0598 137.357 15.2206 137.735 15.2722L137.916 15.2907C138.114 15.3258 138.223 15.3794 138.223 15.468C138.223 15.5917 138.078 15.6804 137.826 15.6804C137.574 15.6804 137.374 15.5918 137.248 15.5031L137.067 15.7856C137.265 15.9278 137.536 15.9979 137.807 15.9979C138.311 15.9979 138.601 15.767 138.601 15.4495C138.601 15.1485 138.366 14.9897 138.006 14.9361L137.826 14.9175C137.664 14.899 137.538 14.8639 137.538 14.7588C137.538 14.635 137.664 14.5649 137.864 14.5649C138.08 14.5649 138.297 14.6536 138.406 14.7072L138.566 14.4062ZM148.63 14.2289C148.414 14.2289 148.269 14.3361 148.179 14.4763V14.2639H147.8V15.9629H148.179V15.0062C148.179 14.7237 148.305 14.5629 148.54 14.5629C148.612 14.5629 148.702 14.5814 148.775 14.5979L148.885 14.2474C148.811 14.2289 148.704 14.2289 148.63 14.2289ZM143.797 15.1155C143.797 15.6289 144.158 16 144.717 16C144.969 16 145.15 15.9464 145.331 15.8062L145.15 15.5052C145.005 15.6124 144.862 15.6639 144.698 15.6639C144.391 15.6639 144.175 15.4515 144.175 15.1155C144.175 14.7959 144.391 14.5835 144.698 14.567C144.86 14.567 145.005 14.6206 145.15 14.7258L145.331 14.4247C145.15 14.2825 144.969 14.2309 144.717 14.2309C144.158 14.2289 143.797 14.6021 143.797 15.1155ZM147.296 15.1155V14.266H146.918V14.4783C146.792 14.3196 146.611 14.2309 146.375 14.2309C145.888 14.2309 145.509 14.6021 145.509 15.1155C145.509 15.6289 145.888 16 146.375 16C146.628 16 146.808 15.9113 146.918 15.7526V15.9649H147.296V15.1155ZM145.907 15.1155C145.907 14.8144 146.104 14.567 146.43 14.567C146.737 14.567 146.953 14.7979 146.953 15.1155C146.953 15.4165 146.737 15.6639 146.43 15.6639C146.106 15.6454 145.907 15.4144 145.907 15.1155ZM141.38 14.2289C140.875 14.2289 140.514 14.5835 140.514 15.1134C140.514 15.6454 140.875 15.9979 141.399 15.9979C141.651 15.9979 141.903 15.9278 142.103 15.767L141.922 15.501C141.777 15.6082 141.596 15.6783 141.418 15.6783C141.182 15.6783 140.949 15.5711 140.894 15.2722H142.174C142.174 15.2186 142.174 15.1835 142.174 15.1299C142.191 14.5835 141.865 14.2289 141.38 14.2289ZM141.38 14.5485C141.615 14.5485 141.777 14.6907 141.813 14.9546H140.911C140.947 14.7258 141.109 14.5485 141.38 14.5485ZM150.778 15.1155V13.5938H150.4V14.4783C150.274 14.3196 150.093 14.2309 149.858 14.2309C149.37 14.2309 148.992 14.6021 148.992 15.1155C148.992 15.6289 149.37 16 149.858 16C150.11 16 150.291 15.9113 150.4 15.7526V15.9649H150.778V15.1155ZM149.389 15.1155C149.389 14.8144 149.587 14.567 149.912 14.567C150.219 14.567 150.436 14.7979 150.436 15.1155C150.436 15.4165 150.219 15.6639 149.912 15.6639C149.587 15.6454 149.389 15.4144 149.389 15.1155ZM136.724 15.1155V14.266H136.346V14.4783C136.22 14.3196 136.039 14.2309 135.804 14.2309C135.316 14.2309 134.938 14.6021 134.938 15.1155C134.938 15.6289 135.316 16 135.804 16C136.056 16 136.237 15.9113 136.346 15.7526V15.9649H136.724V15.1155ZM135.318 15.1155C135.318 14.8144 135.516 14.567 135.842 14.567C136.149 14.567 136.365 14.7979 136.365 15.1155C136.365 15.4165 136.149 15.6639 135.842 15.6639C135.516 15.6454 135.318 15.4144 135.318 15.1155Z" fill="black"/>
<path d="M144.122 1.36292H138.439V11.3794H144.122V1.36292Z" fill="#FF5A00"/>
<path d="M138.817 6.37113C138.817 4.33608 139.793 2.5299 141.289 1.36289C140.188 0.513402 138.799 0 137.283 0C133.694 0 130.789 2.84948 130.789 6.37113C130.789 9.89278 133.694 12.7423 137.283 12.7423C138.799 12.7423 140.188 12.2289 141.289 11.3794C139.791 10.2289 138.817 8.40619 138.817 6.37113Z" fill="#EB001B"/>
<path d="M151.789 6.37113C151.789 9.89278 148.885 12.7423 145.295 12.7423C143.78 12.7423 142.39 12.2289 141.289 11.3794C142.804 10.2103 143.761 8.40619 143.761 6.37113C143.761 4.33608 142.785 2.5299 141.289 1.36289C142.388 0.513402 143.777 0 145.293 0C148.885 0 151.789 2.86804 151.789 6.37113Z" fill="#F79E1B"/>
</g>
<defs>
<clipPath id="clip0_1641_1685">
<rect width="39" height="12" fill="white" transform="translate(76.7891 2)"/>
</clipPath>
<clipPath id="clip1_1641_1685">
<rect width="21" height="16" fill="white" transform="translate(130.789)"/>
</clipPath>
</defs>
</svg>
