<svg width="21" height="21" viewBox="0 0 21 21" fill="none" xmlns="http://www.w3.org/2000/svg">
<circle cx="10.5" cy="10.5" r="10.5" fill="#4F4F4F"/>
<path d="M10.8919 5.91C11.8819 5.91 12.6819 6.19 13.2919 6.75C13.9019 7.31 14.2069 8.06 14.2069 9C14.2069 10.05 13.8819 10.83 13.2319 11.34C12.5819 11.84 11.7019 12.09 10.5919 12.09L10.5469 13.515H9.36189L9.30189 11.145H9.73689C10.7269 11.145 11.5019 10.995 12.0619 10.695C12.6219 10.395 12.9019 9.83 12.9019 9C12.9019 8.4 12.7219 7.925 12.3619 7.575C12.0019 7.225 11.5169 7.05 10.9069 7.05C10.2869 7.05 9.79689 7.22 9.43689 7.56C9.08689 7.89 8.91189 8.345 8.91189 8.925H7.62189C7.62189 8.325 7.75689 7.8 8.02689 7.35C8.29689 6.89 8.67689 6.535 9.16689 6.285C9.66689 6.035 10.2419 5.91 10.8919 5.91ZM9.94689 16.59C9.68689 16.59 9.46689 16.5 9.28689 16.32C9.10689 16.14 9.01689 15.92 9.01689 15.66C9.01689 15.4 9.10689 15.18 9.28689 15C9.46689 14.82 9.68689 14.73 9.94689 14.73C10.1969 14.73 10.4069 14.82 10.5769 15C10.7569 15.18 10.8469 15.4 10.8469 15.66C10.8469 15.92 10.7569 16.14 10.5769 16.32C10.4069 16.5 10.1969 16.59 9.94689 16.59Z" fill="white"/>
</svg>
