<svg width="20" height="21" viewBox="0 0 20 21" fill="none" xmlns="http://www.w3.org/2000/svg">
<g clip-path="url(#clip0_80_656)">
<path d="M9.9987 20.3996L9.65578 19.9033C9.39786 19.5296 3.33203 10.7079 3.33203 7.16667C3.33203 3.49083 6.32286 0.5 9.9987 0.5C13.6745 0.5 16.6654 3.49083 16.6654 7.16667C16.6654 10.7079 10.5995 19.5296 10.3416 19.9033L9.9987 20.3996ZM9.9987 2.33333C7.49902 2.33333 5.16536 3.95 5.16536 7.16667C5.16536 9.99458 8.99902 16 9.9987 17.9225C10.999 16 14.832 9.99458 14.832 7.16667C14.832 3.95 12.4984 2.33333 9.9987 2.33333Z" fill="#F86767"/>
<path d="M10.0009 10.5C8.39297 10.5 6.81641 9 6.81641 7.16667C6.81641 5.33333 8.39297 4 10.0009 4C11.6088 4 13.1706 5.401 13.1706 7.16667C13.1706 9.25 11.6088 10.5 10.0009 10.5ZM10.0006 5.08333C8.85181 5.08333 7.91723 6.01792 7.91723 7.16667C7.91723 8.31542 8.85181 9.25 10.0006 9.25C11.1493 9.25 12.0839 8.31542 12.0839 7.16667C12.0839 6.01792 11.1493 5.08333 10.0006 5.08333Z" fill="#F86767"/>
</g>
<defs>
<clipPath id="clip0_80_656">
<rect width="20" height="20" fill="white" transform="translate(0 0.5)"/>
</clipPath>
</defs>
</svg>
